<svg width="779" height="371" viewBox="0 0 779 371" fill="none" xmlns="http://www.w3.org/2000/svg">
<path d="M537.234 49.9386C540.641 50.9871 543.853 53.3464 546.867 57.0165C549.882 60.5554 552.11 64.4876 553.552 68.813C552.11 72.3519 549.882 76.6118 546.867 81.5925C543.853 86.5733 540.838 91.6851 537.823 96.928C534.809 102.04 532.056 106.955 529.566 111.674C527.207 116.261 525.83 120.062 525.437 123.077C527.534 120.849 529.828 118.293 532.318 115.409C534.94 112.394 537.43 109.445 539.789 106.562C542.28 103.547 544.574 100.86 546.671 98.5008C548.768 96.0105 550.406 94.1754 551.586 92.9958C554.076 90.3743 557.026 87.3597 560.433 83.9518C563.841 80.4129 567.38 77.1361 571.05 74.1214C574.851 70.9757 578.652 68.3542 582.454 66.2571C586.255 64.0288 589.728 62.9147 592.874 62.9147C596.282 62.9147 599.1 64.0944 601.328 66.4537C603.687 68.6819 605.522 71.0412 606.833 73.5316C606.833 73.7937 606.309 74.1869 605.26 74.7112C604.343 75.1044 602.966 76.3496 601.131 78.4468C599.296 80.8061 597.199 84.0829 594.84 88.2772C592.612 92.3404 590.383 96.7969 588.155 101.647C586.058 106.365 584.288 111.215 582.847 116.196C581.405 121.176 580.684 125.698 580.684 129.762C580.684 133.038 581.077 135.136 581.864 136.053C582.781 136.971 584.026 137.429 585.599 137.429C587.041 137.429 588.548 137.102 590.121 136.446C591.694 135.791 592.939 135.463 593.857 135.463C594.381 135.725 594.774 136.315 595.036 137.233C595.43 138.019 595.626 138.74 595.626 139.395C594.578 140.313 593.332 141.23 591.891 142.148C590.449 143.065 588.942 143.917 587.369 144.704C585.796 145.49 584.223 146.146 582.65 146.67C581.208 147.194 579.898 147.456 578.718 147.456C574.917 147.456 571.771 146.866 569.281 145.687C566.921 144.638 565.021 143.196 563.579 141.361C562.268 139.526 561.351 137.364 560.827 134.873C560.302 132.252 560.04 129.499 560.04 126.616C560.04 125.043 560.171 123.273 560.433 121.307C560.696 119.341 561.22 117.048 562.006 114.426C562.793 111.674 563.907 108.462 565.349 104.792C566.79 100.991 568.625 96.4692 570.854 91.2263C570.591 91.2263 568.822 92.1438 565.545 93.9788C562.268 95.8138 558.729 98.6319 554.928 102.433C548.768 108.331 543.197 114.164 538.217 119.931C533.367 125.698 528.386 132.121 523.274 139.199C520.391 143.262 517.835 146.67 515.607 149.422C513.509 152.306 511.674 154.207 510.102 155.124C507.349 153.551 505.317 151.323 504.007 148.439C502.696 145.687 501.713 142.803 501.058 139.789C501.058 137.298 501.385 134.152 502.041 130.351C502.827 126.55 503.81 122.356 504.99 117.768C506.301 113.05 507.873 108.135 509.708 103.023C511.543 97.911 513.575 92.7992 515.803 87.6874C520.784 76.153 525.306 67.109 529.369 60.5554C533.564 54.0018 536.185 50.4629 537.234 49.9386Z" fill="#0071BC"/>
<path d="M459.116 132.121C459.116 130.941 459.181 129.499 459.312 127.795C459.574 125.96 459.968 123.601 460.492 120.717C461.016 117.703 461.671 114.098 462.458 109.904C463.375 105.71 464.489 100.663 465.8 94.7652C466.062 93.4544 466.652 91.3573 467.57 88.4737C468.487 85.5901 469.667 82.5754 471.109 79.4297C472.681 76.1529 474.517 73.0072 476.614 69.9925C478.842 66.9779 481.463 64.7496 484.478 63.3078C486.706 63.8321 489.655 65.2084 493.325 67.4366C496.995 69.5338 500.141 72.4829 502.763 76.284C499.748 79.6919 497.192 83.0997 495.095 86.5076C493.129 89.9155 491.294 93.4544 489.59 97.1245C488.017 100.794 486.51 104.596 485.068 108.528C483.757 112.46 482.25 116.589 480.546 120.914C479.104 124.584 477.793 128.385 476.614 132.317C475.434 136.118 474.779 139.461 474.648 142.344C474.648 144.704 474.582 146.342 474.451 147.26C474.451 148.308 474.123 148.832 473.468 148.832C472.944 148.832 471.895 148.505 470.322 147.849C468.749 147.194 467.111 146.211 465.407 144.9C463.834 143.459 462.392 141.689 461.082 139.592C459.771 137.495 459.116 135.004 459.116 132.121ZM496.668 46.7927C496.668 46.0063 496.864 44.8266 497.258 43.2538C496.602 42.5984 496.012 41.6154 495.488 40.3046C495.095 38.9939 494.898 37.8143 494.898 36.7657C494.898 35.586 495.029 34.0132 495.291 32.0471C495.685 29.9499 496.143 27.7217 496.668 25.3624C497.192 23.0031 497.847 20.5783 498.634 18.0879C499.42 15.4665 500.207 13.1072 500.993 11.01C502.566 11.01 504.467 11.4688 506.695 12.3863C509.054 13.1727 511.413 14.2868 513.773 15.7286C516.132 17.0393 518.295 18.5467 520.261 20.2506C522.227 21.8235 523.734 23.3308 524.783 24.7726C523.341 26.2144 521.44 28.246 519.081 30.8675C516.722 33.3578 514.428 36.0448 512.2 38.9284C509.972 41.6809 507.94 44.3024 506.105 46.7927C504.27 49.2831 503.09 51.0526 502.566 52.1012C500.993 51.839 499.617 51.1836 498.437 50.1351C497.258 48.9554 496.668 47.8413 496.668 46.7927Z" fill="#0071BC"/>
<path d="M346.646 210.371C344.811 209.847 343.763 207.881 343.501 204.473C342.976 202.769 342.583 200.737 342.321 198.378C342.19 196.019 342.124 193.332 342.124 190.317C342.124 187.564 342.583 183.763 343.501 178.914C344.418 174.195 345.663 168.821 347.236 162.792C348.94 156.762 350.972 150.274 353.331 143.328C355.69 136.25 358.312 129.106 361.195 121.897C364.734 112.853 367.815 105.054 370.436 98.5008C373.057 91.8161 375.22 86.049 376.924 81.1993C378.759 76.3496 380.201 72.3519 381.249 69.2062C382.429 66.0604 383.347 63.3734 384.002 61.1452C384.526 59.5724 385.313 57.6718 386.361 55.4436C387.41 53.2153 388.589 50.9871 389.9 48.7589C391.342 46.3996 392.784 44.2369 394.226 42.2708C395.667 40.1737 396.978 38.6008 398.158 37.5522C402.745 38.2076 407.071 39.3872 411.134 41.0912C415.197 42.7951 417.688 44.4335 418.605 46.0064C416.77 47.7103 414.673 50.3973 412.314 54.0673C409.954 57.6063 407.66 61.5384 405.432 65.8638C403.204 70.0581 401.172 74.3835 399.337 78.84C397.502 83.2964 396.126 87.2286 395.209 90.6365C396.519 88.4082 398.223 85.9834 400.32 83.362C402.418 80.7405 405.629 77.136 409.954 72.5485C414.804 67.5678 419.326 63.7667 423.52 61.1452C427.846 58.3927 431.581 57.0164 434.727 57.0164C439.708 57.0164 443.771 58.3927 446.917 61.1452C450.193 63.8977 451.832 67.4367 451.832 71.7621C451.832 81.1993 450.259 90.5709 447.113 99.8771C443.967 109.052 439.446 117.375 433.547 124.846C431.319 127.73 428.698 130.482 425.683 133.104C422.668 135.725 419.523 138.085 416.246 140.182C412.969 142.148 409.758 143.721 406.612 144.9C403.466 146.08 400.648 146.67 398.158 146.67C395.798 146.67 393.701 146.211 391.866 145.294C390.162 144.245 388.983 143 388.327 141.558C393.439 138.543 398.42 134.349 403.27 128.975C408.119 123.601 412.576 117.441 416.639 110.494C420.833 103.416 424.438 95.8138 427.452 87.6874C430.598 79.5609 432.957 71.3033 434.53 62.9147C429.55 65.5361 425.028 68.4197 420.964 71.5655C417.032 74.5801 413.1 78.5778 409.168 83.5586C404.449 89.3257 400.714 93.9788 397.961 97.5178C395.209 101.057 392.915 104.071 391.08 106.562C389.376 109.052 387.934 111.411 386.754 113.64C385.706 115.737 384.526 118.358 383.216 121.504C381.38 125.698 379.218 131.269 376.727 138.216C374.368 145.031 371.878 152.699 369.256 161.219C366.766 169.739 364.21 178.783 361.589 188.351C359.098 198.05 356.673 207.684 354.314 217.252C352.872 216.99 351.627 215.942 350.579 214.107C349.53 212.927 348.743 212.075 348.219 211.551C347.826 211.026 347.302 210.633 346.646 210.371Z" fill="#0071BC"/>
<path d="M324.302 84.9348C322.205 85.0659 319.649 86.4421 316.634 89.0636C313.62 91.554 310.343 94.8308 306.804 98.894C303.396 102.826 299.792 107.217 295.991 112.067C292.32 116.916 288.716 121.766 285.177 126.616C281.769 131.334 278.558 135.791 275.543 139.985C272.529 144.179 269.973 147.522 267.876 150.012C264.992 148.833 262.502 147.129 260.404 144.9C258.307 142.541 256.8 139.657 255.882 136.25C256.538 132.186 257.455 127.992 258.635 123.667C259.815 119.21 261.322 114.623 263.157 109.904C265.123 105.185 267.482 100.27 270.235 95.1585C273.118 89.9156 276.592 84.4105 280.655 78.6434C278.689 78.7744 276.002 80.2162 272.594 82.9687C269.186 85.5902 265.516 89.0636 261.584 93.389C257.652 97.5833 253.589 102.367 249.394 107.741C245.2 112.984 241.268 118.162 237.598 123.273C232.748 130.089 228.685 136.053 225.408 141.165C222.262 146.277 219.969 149.291 218.527 150.209C215.119 147.718 212.76 145.031 211.449 142.148C210.138 139.264 209.155 136.053 208.5 132.514C208.631 129.368 209.09 125.436 209.876 120.718C210.794 115.999 212.039 111.149 213.612 106.169C216.626 96.6003 220.493 87.0975 225.212 77.6603C230.061 68.2231 234.714 59.5723 239.171 51.708C242.841 52.4944 246.118 53.7396 249.001 55.4436C252.016 57.1475 255.162 59.6379 258.438 62.9147C257.128 66.9779 255.096 71.3033 252.343 75.8908C249.591 80.3473 246.707 85.0659 243.693 90.0466C240.678 95.0274 237.926 100.139 235.435 105.382C232.945 110.625 231.306 115.933 230.52 121.307C234.19 116.064 238.515 110.035 243.496 103.219C248.608 96.4036 253.785 89.9811 259.028 83.9518C264.402 77.9224 269.711 72.8106 274.953 68.6163C280.196 64.422 284.915 62.3249 289.109 62.3249C290.682 62.3249 292.386 62.587 294.221 63.1113C296.056 63.6356 297.76 64.2909 299.333 65.0774C300.906 65.8638 302.216 66.6502 303.265 67.4367C304.314 68.092 304.903 68.6163 305.035 69.0095C304.379 71.631 302.806 75.2355 300.316 79.823C297.957 84.2795 295.401 88.9981 292.648 93.9788C289.896 98.9595 287.34 103.809 284.98 108.528C282.621 113.115 281.245 116.785 280.852 119.538C287.274 110.756 293.304 102.826 298.94 95.7483C304.576 88.5393 309.884 82.3789 314.865 77.2671C319.846 72.1553 324.433 68.2231 328.628 65.4706C332.953 62.7181 337.016 61.3418 340.817 61.3418C343.439 61.3418 345.864 62.0627 348.092 63.5045C350.451 64.8152 352.089 66.7813 353.007 69.4028C351.827 73.3349 349.861 78.0535 347.109 83.5586C344.487 89.0636 341.8 94.8963 339.048 101.057C336.295 107.086 333.805 113.05 331.577 118.948C329.479 124.846 328.431 130.155 328.431 134.873C328.431 137.626 328.824 139.461 329.611 140.378C330.397 141.165 331.511 141.558 332.953 141.558C334.526 141.558 335.968 141.296 337.278 140.772C338.72 140.116 339.769 139.789 340.424 139.789C341.21 140.313 341.669 140.968 341.8 141.755C341.931 142.541 341.997 143.262 341.997 143.917C339.375 146.014 336.688 147.718 333.936 149.029C331.183 150.471 328.103 151.192 324.695 151.192C321.55 151.192 318.928 150.668 316.831 149.619C314.865 148.57 313.227 147.129 311.916 145.294C310.605 143.459 309.688 141.361 309.163 139.002C308.639 136.643 308.377 134.087 308.377 131.334C308.377 126.878 308.967 122.487 310.146 118.162C311.326 113.705 312.702 109.511 314.275 105.579C315.979 101.515 317.749 97.7799 319.584 94.372C321.419 90.8331 322.991 87.6873 324.302 84.9348Z" fill="#0071BC"/>
<path d="M167.756 140.968C165.265 138.871 163.561 136.25 162.644 133.104C161.858 129.958 161.464 127.271 161.464 125.043C161.464 122.29 161.792 119.931 162.447 117.965C161.923 117.965 160.743 119.014 158.908 121.111C157.073 123.208 155.042 125.698 152.814 128.582C150.716 131.465 148.619 134.283 146.522 137.036C144.425 139.789 142.852 141.82 141.803 143.131C140.1 144.966 138.461 146.408 136.888 147.456C135.446 148.505 134.267 149.095 133.349 149.226C131.252 149.095 129.024 148.636 126.665 147.849C124.436 147.194 122.274 146.211 120.177 144.9C118.21 143.59 116.441 142.017 114.868 140.182C113.426 138.347 112.443 136.25 111.919 133.89C111.919 130.22 111.985 127.206 112.116 124.846C112.378 122.487 112.837 119.931 113.492 117.179C114.672 112.198 116.375 106.562 118.604 100.27C120.963 93.9788 123.65 87.8184 126.665 81.7891C129.679 75.6287 133.022 69.927 136.692 64.6841C140.493 59.3102 144.49 55.1159 148.685 52.1012C149.864 52.1012 151.241 52.2323 152.814 52.4944C154.386 52.6255 155.959 52.9532 157.532 53.4775C159.236 54.0017 160.809 54.6571 162.251 55.4435C163.824 56.0989 165.134 57.0164 166.183 58.1961C165.003 59.5068 161.989 63.8977 157.139 71.3688C152.42 78.8399 147.112 89.5879 141.214 103.613C140.558 105.054 139.772 107.152 138.854 109.904C137.937 112.657 137.019 115.54 136.102 118.555C135.184 121.569 134.398 124.519 133.743 127.402C133.218 130.286 132.956 132.58 132.956 134.283C132.956 135.332 133.087 136.119 133.349 136.643C133.743 137.167 134.07 137.56 134.332 137.822C136.298 137.036 138.789 134.873 141.803 131.334C144.818 127.795 149.012 122.356 154.386 115.016C155.697 113.181 157.204 111.084 158.908 108.724C160.743 106.365 162.578 103.875 164.413 101.253C166.248 98.5008 167.952 95.6827 169.525 92.7991C171.229 89.9155 172.605 87.032 173.654 84.1484C174.178 82.5755 174.834 80.7405 175.62 78.6433C176.538 76.4151 177.586 74.1213 178.766 71.762C180.077 69.4027 181.518 67.0434 183.091 64.6841C184.795 62.1938 186.761 59.9 188.989 57.8028C190.693 57.8028 192.528 57.9994 194.495 58.3927C196.461 58.7859 198.296 59.3102 200 59.9655C201.835 60.4898 203.407 61.1452 204.718 61.9316C206.029 62.587 207.012 63.3079 207.667 64.0943C205.308 69.8615 202.687 75.5631 199.803 81.1992C196.919 86.8353 194.232 92.4059 191.742 97.911C189.252 103.285 187.154 108.659 185.451 114.033C183.747 119.407 182.895 124.65 182.895 129.762C182.895 132.514 183.091 134.939 183.484 137.036C184.009 139.002 184.533 140.706 185.057 142.148C185.582 143.459 186.04 144.573 186.434 145.49C186.958 146.408 187.22 147.194 187.22 147.849C187.22 147.981 187.089 148.177 186.827 148.439C186.696 148.57 186.565 148.636 186.434 148.636C185.516 148.636 184.336 148.439 182.895 148.046C181.453 147.653 179.814 147.063 177.979 146.277C176.275 145.621 174.506 144.835 172.671 143.917C170.967 143 169.329 142.017 167.756 140.968Z" fill="#0071BC"/>
<path d="M90.2967 0C95.2774 0 100.455 0.917506 105.829 2.75252C111.203 4.58753 115.921 6.94683 119.985 9.83042C118.674 16.5151 117.429 22.5444 116.249 27.9184C115.2 33.2923 114.217 38.2075 113.3 42.664C112.382 46.9894 111.465 50.9871 110.547 54.6571C109.761 58.1961 108.974 61.5384 108.188 64.6841C105.042 76.4806 101.766 87.163 98.3576 96.7313C95.0808 106.169 91.5419 114.688 87.7408 122.29C84.0708 129.893 80.1386 136.643 75.9443 142.541C71.8811 148.439 67.4901 153.617 62.7715 158.073C58.184 162.399 53.5965 165.937 49.0089 168.69C44.4214 171.442 40.1616 173.212 36.2294 173.998C30.9865 173.998 26.1368 173.409 21.6804 172.229C17.2239 171.049 13.3573 169.411 10.0805 167.314C6.93476 165.348 4.44439 162.923 2.60938 160.039C0.905436 157.287 0.0534668 154.206 0.0534668 150.799C0.0534668 147.129 0.970972 142.541 2.80598 137.036C4.64099 131.4 7.45905 124.781 11.2601 117.179C12.833 117.31 14.668 117.703 16.7652 118.358C18.8623 119.014 20.9595 119.8 23.0566 120.718C25.1538 121.635 27.0543 122.684 28.7583 123.863C30.4622 124.912 31.7074 125.96 32.4938 127.009C28.2995 131.334 24.8917 136.119 22.2702 141.361C19.6488 146.473 18.338 150.93 18.338 154.731C18.338 156.959 18.7313 158.925 19.5177 160.629C20.4352 162.464 21.9425 164.102 24.0397 165.544C32.0351 162.53 39.8339 156.893 47.4361 148.636C55.0383 140.509 61.7885 130.351 67.6867 118.162C71.2257 110.953 74.437 102.695 77.3206 93.389C80.2041 84.0828 82.629 74.7767 84.5951 65.4706C86.6922 56.0334 88.2651 47.0549 89.3137 38.5352C90.4933 29.8845 91.0831 22.61 91.0831 16.7117C91.0831 15.7942 91.0176 14.549 90.8865 12.9761C90.8865 11.2722 90.821 9.56827 90.6899 7.86433C90.6899 6.02932 90.6244 4.39091 90.4933 2.94912C90.3622 1.50733 90.2967 0.52429 90.2967 0Z" fill="#0071BC"/>
<path d="M686.37 340.034C686.37 333.546 687.918 324.478 691.015 312.829C694.111 301.032 698.461 287.319 704.065 271.688C713.207 246.768 721.76 226.05 729.722 209.535C737.832 192.873 745.721 179.897 753.389 170.607C755.158 170.902 757.297 171.639 759.803 172.819C762.457 173.998 765.038 175.326 767.545 176.8C770.051 178.127 772.263 179.528 774.18 181.003C776.245 182.477 777.572 183.657 778.162 184.542C766.66 198.108 756.559 212.706 747.859 228.336C739.159 243.966 731.197 261.882 723.971 282.084C717.778 299.484 713.06 315.188 709.816 329.196C706.572 343.057 704.95 354.632 704.95 363.922C704.95 366.429 704.95 367.977 704.95 368.567C704.95 369.157 705.023 369.747 705.171 370.336C703.106 370.042 701.337 369.525 699.862 368.788C698.388 368.051 697.429 367.166 696.987 366.134C696.692 365.397 695.881 364.291 694.554 362.816C693.227 361.489 692.047 360.457 691.015 359.72C689.688 358.835 688.582 356.549 687.697 352.863C686.812 349.029 686.37 344.753 686.37 340.034Z" fill="#0071BC"/>
<path d="M634.098 340.034C634.098 333.546 635.646 324.478 638.743 312.829C641.839 301.032 646.189 287.319 651.793 271.688C660.935 246.768 669.487 226.05 677.45 209.535C685.56 192.873 693.449 179.897 701.117 170.607C702.886 170.902 705.024 171.639 707.531 172.819C710.185 173.998 712.766 175.326 715.273 176.8C717.779 178.127 719.991 179.528 721.908 181.003C723.973 182.477 725.3 183.657 725.889 184.542C714.388 198.108 704.287 212.706 695.587 228.336C686.887 243.966 678.925 261.882 671.699 282.084C665.506 299.484 660.788 315.188 657.543 329.196C654.299 343.057 652.677 354.632 652.677 363.922C652.677 366.429 652.677 367.977 652.677 368.567C652.677 369.157 652.751 369.747 652.899 370.336C650.834 370.042 649.065 369.525 647.59 368.788C646.116 368.051 645.157 367.166 644.715 366.134C644.42 365.397 643.609 364.291 642.282 362.816C640.955 361.489 639.775 360.457 638.743 359.72C637.416 358.835 636.31 356.549 635.425 352.863C634.54 349.029 634.098 344.753 634.098 340.034Z" fill="#0071BC"/>
<path d="M606.732 264.831C608.206 264.831 609.902 265.126 611.819 265.716C613.883 266.159 615.726 266.822 617.348 267.707C618.97 268.444 620.298 269.255 621.33 270.14C622.509 271.025 623.099 271.836 623.099 272.573C620.15 278.766 617.422 285.033 614.915 291.374C612.409 297.567 610.27 303.539 608.501 309.29C606.732 315.04 605.331 320.422 604.299 325.436C603.414 330.45 602.971 334.799 602.971 338.486C602.971 342.615 603.414 346.08 604.299 348.882C605.183 351.536 606.658 353.453 608.722 354.632C606.953 355.812 604.667 356.77 601.865 357.508C599.064 358.245 596.557 358.614 594.345 358.614C586.383 358.614 582.401 353.158 582.401 342.246C582.401 333.841 585.203 322.339 590.806 307.741C587.857 314.524 584.466 320.939 580.632 326.984C576.798 332.883 572.89 338.117 568.909 342.688C564.928 347.26 560.873 351.02 556.744 353.969C552.763 356.77 549.076 358.466 545.685 359.056C540.229 358.761 535.805 356.181 532.414 351.315C529.022 346.301 527.326 339.96 527.326 332.293C527.326 324.035 529.096 315.335 532.635 306.193C536.174 297.051 540.671 288.572 546.127 280.757C551.73 272.942 557.776 266.453 564.264 261.293C570.752 255.984 577.019 253.182 583.065 252.888C584.539 253.33 586.161 254.215 587.931 255.542C589.848 256.869 591.617 258.417 593.239 260.187C595.009 261.956 596.483 263.799 597.663 265.716C598.843 267.486 599.506 269.034 599.654 270.361C593.755 271.246 587.636 274.121 581.295 278.987C575.102 283.853 569.425 289.752 564.264 296.682C559.251 303.465 555.122 310.764 551.878 318.579C548.634 326.394 547.012 333.694 547.012 340.477C547.012 343.278 548.044 345.048 550.108 345.785C554.385 344.9 559.324 341.288 564.928 334.947C570.531 328.459 577.314 318.506 585.277 305.087C586.751 302.433 588.373 299.484 590.143 296.24C592.06 292.996 593.977 289.604 595.893 286.065C597.81 282.526 599.654 278.987 601.423 275.448C603.34 271.762 605.11 268.223 606.732 264.831Z" fill="#0071BC"/>
<path d="M524.727 232.317C524.727 241.46 522.221 249.644 517.207 256.869C512.194 263.947 505.337 269.845 496.637 274.564C502.24 278.397 506.664 283.116 509.908 288.719C513.3 294.175 514.995 300.221 514.995 306.857C514.995 314.819 512.562 322.708 507.696 330.523C502.978 338.191 496.637 345.048 488.674 351.093C480.712 356.992 471.643 361.784 461.469 365.47C451.294 369.157 440.899 371 430.282 371C418.78 371 408.679 368.788 399.979 364.364C391.427 360.088 384.718 353.969 379.852 346.006C381.326 341.582 383.243 336.127 385.602 329.639C388.109 323.003 390.837 316.073 393.786 308.847C396.735 301.474 399.685 294.175 402.634 286.95C405.73 279.725 408.606 273.236 411.26 267.486C416.863 254.952 421.877 244.556 426.3 236.299C430.724 228.041 434.779 221.479 438.466 216.613C430.355 219.12 422.983 221.995 416.347 225.239C409.712 228.336 404.845 231.359 401.749 234.308C400.422 233.423 399.021 232.096 397.546 230.327C396.219 228.557 394.892 226.64 393.565 224.576C392.385 222.364 391.353 220.152 390.468 217.94C389.731 215.729 389.289 213.738 389.141 211.968C392.975 209.314 397.915 206.807 403.961 204.448C410.154 201.941 416.863 199.803 424.089 198.034C431.314 196.264 438.687 194.863 446.207 193.831C453.875 192.799 461.174 192.283 468.104 192.283C485.799 192.283 499.66 195.822 509.687 202.9C519.714 209.978 524.727 219.784 524.727 232.317ZM440.456 285.18C437.654 283.853 435.074 281.863 432.715 279.208C429.323 286.729 426.079 294.102 422.983 301.327C420.033 308.552 417.379 315.262 415.02 321.455C412.661 327.648 410.744 333.03 409.269 337.601C407.795 342.172 406.984 345.49 406.836 347.554C408.901 348.734 411.334 349.619 414.135 350.209C417.084 350.799 420.697 351.093 424.973 351.093C435 351.093 444.585 349.693 453.727 346.891C462.87 344.089 470.906 340.329 477.836 335.61C484.767 330.744 490.296 325.215 494.425 319.022C498.554 312.829 500.618 306.34 500.618 299.557C500.618 289.825 496.416 282.821 488.011 278.545C476.509 283.264 463.533 285.623 449.082 285.623C447.018 285.623 445.396 285.623 444.216 285.623C443.184 285.623 441.931 285.475 440.456 285.18ZM483.366 208.429C480.269 208.429 476.952 208.651 473.413 209.093C470.021 209.388 466.408 209.904 462.575 210.641C463.164 211.231 463.607 211.895 463.902 212.632C464.344 213.222 464.713 213.885 465.008 214.623C463.681 216.392 462.059 218.973 460.142 222.364C458.225 225.756 456.087 229.737 453.727 234.308C451.368 238.732 448.861 243.672 446.207 249.127C443.7 254.583 441.12 260.187 438.466 265.937C440.972 265.348 443.995 264.905 447.534 264.61C451.22 264.168 454.833 263.947 458.372 263.947C460.289 263.947 462.132 264.02 463.902 264.168C465.819 264.315 467.662 264.537 469.431 264.831C476.509 263.652 482.85 261.956 488.453 259.744C494.204 257.385 499.144 254.731 503.273 251.782C507.401 248.685 510.572 245.294 512.783 241.607C514.995 237.921 516.101 234.013 516.101 229.884C516.101 222.806 513.3 217.498 507.696 213.959C502.093 210.273 493.983 208.429 483.366 208.429Z" fill="#0071BC"/>
<path d="M523.853 57.4388C527.022 58.4139 530.008 60.6079 532.811 64.0207C535.615 67.3116 537.687 70.9682 539.028 74.9905C537.687 78.2814 535.615 82.2427 532.811 86.8744C530.008 91.5061 527.205 96.2597 524.401 101.135C521.598 105.889 519.038 110.459 516.722 114.847C514.528 119.113 513.249 122.648 512.883 125.452C514.833 123.379 516.966 121.003 519.282 118.321C521.72 115.518 524.036 112.775 526.23 110.094C528.545 107.29 530.678 104.792 532.629 102.598C534.579 100.282 536.102 98.5755 537.199 97.4785C539.515 95.0408 542.258 92.2374 545.427 89.0684C548.596 85.7774 551.887 82.7303 555.3 79.9269C558.834 77.0016 562.369 74.5639 565.904 72.6137C569.438 70.5416 572.668 69.5056 575.594 69.5056C578.763 69.5056 581.383 70.6026 583.455 72.7965C585.649 74.8686 587.356 77.0626 588.575 79.3784C588.575 79.6222 588.087 79.9878 587.112 80.4754C586.259 80.841 584.979 81.999 583.273 83.9491C581.566 86.1431 579.616 89.1903 577.422 93.0906C575.35 96.8691 573.278 101.013 571.206 105.523C569.256 109.911 567.61 114.421 566.269 119.052C564.929 123.684 564.258 127.889 564.258 131.668C564.258 134.715 564.624 136.665 565.355 137.518C566.208 138.371 567.366 138.798 568.829 138.798C570.17 138.798 571.571 138.493 573.034 137.884C574.497 137.275 575.655 136.97 576.508 136.97C576.995 137.214 577.361 137.762 577.605 138.615C577.97 139.347 578.153 140.017 578.153 140.626C577.178 141.48 576.02 142.333 574.679 143.186C573.339 144.039 571.937 144.831 570.474 145.563C569.012 146.294 567.549 146.904 566.086 147.391C564.746 147.879 563.527 148.122 562.43 148.122C558.895 148.122 555.97 147.574 553.654 146.477C551.46 145.502 549.693 144.161 548.352 142.455C547.133 140.748 546.28 138.737 545.792 136.421C545.305 133.984 545.061 131.424 545.061 128.742C545.061 127.28 545.183 125.634 545.427 123.806C545.671 121.978 546.158 119.845 546.889 117.407C547.621 114.847 548.657 111.861 549.997 108.448C551.338 104.914 553.045 100.709 555.117 95.8331C554.873 95.8331 553.227 96.6863 550.18 98.3927C547.133 100.099 543.842 102.72 540.307 106.254C534.579 111.739 529.399 117.163 524.767 122.526C520.257 127.889 515.625 133.862 510.872 140.444C508.19 144.222 505.814 147.391 503.741 149.951C501.791 152.632 500.085 154.4 498.622 155.253C496.063 153.79 494.173 151.718 492.955 149.037C491.736 146.477 490.822 143.795 490.212 140.992C490.212 138.676 490.517 135.751 491.126 132.216C491.858 128.682 492.772 124.781 493.869 120.515C495.088 116.127 496.55 111.556 498.257 106.803C499.963 102.049 501.852 97.2957 503.924 92.5422C508.556 81.8161 512.761 73.406 516.54 67.3116C520.44 61.2173 522.878 57.9264 523.853 57.4388Z" fill="white"/>
<path d="M451.209 133.862C451.209 132.765 451.27 131.424 451.392 129.839C451.636 128.133 452.002 125.939 452.489 123.257C452.977 120.454 453.586 117.102 454.317 113.202C455.171 109.301 456.207 104.609 457.426 99.1239C457.669 97.9051 458.218 95.9549 459.071 93.2734C459.924 90.5919 461.021 87.7885 462.362 84.8632C463.825 81.816 465.531 78.8908 467.481 76.0874C469.553 73.284 471.991 71.2119 474.794 69.8711C476.866 70.3587 479.609 71.6385 483.022 73.7106C486.435 75.6608 489.36 78.4032 491.798 81.9379C488.994 85.107 486.617 88.276 484.667 91.4451C482.839 94.6141 481.132 97.9051 479.548 101.318C478.085 104.731 476.684 108.265 475.343 111.922C474.124 115.579 472.722 119.418 471.138 123.44C469.797 126.853 468.578 130.388 467.481 134.044C466.384 137.579 465.775 140.687 465.653 143.369C465.653 145.563 465.592 147.086 465.47 147.94C465.47 148.915 465.165 149.402 464.556 149.402C464.068 149.402 463.093 149.097 461.631 148.488C460.168 147.879 458.644 146.964 457.06 145.746C455.597 144.405 454.256 142.759 453.038 140.809C451.819 138.859 451.209 136.543 451.209 133.862ZM486.13 54.5134C486.13 53.7821 486.313 52.6851 486.678 51.2225C486.069 50.6131 485.52 49.6989 485.033 48.4801C484.667 47.2612 484.484 46.1642 484.484 45.1891C484.484 44.0921 484.606 42.6295 484.85 40.8012C485.216 38.851 485.642 36.7789 486.13 34.585C486.617 32.391 487.227 30.1361 487.958 27.8203C488.689 25.3825 489.421 23.1886 490.152 21.2384C491.615 21.2384 493.382 21.665 495.454 22.5182C497.648 23.2495 499.842 24.2856 502.036 25.6263C504.23 26.8452 506.241 28.2469 508.069 29.8314C509.898 31.294 511.299 32.6957 512.274 34.0365C510.934 35.3772 509.166 37.2665 506.972 39.7042C504.778 42.0201 502.645 44.5187 500.573 47.2002C498.501 49.7599 496.612 52.1976 494.906 54.5134C493.199 56.8293 492.102 58.4748 491.615 59.4498C490.152 59.2061 488.872 58.5966 487.775 57.6215C486.678 56.5246 486.13 55.4885 486.13 54.5134Z" fill="white"/>
<path d="M346.622 206.628C344.916 206.14 343.941 204.312 343.697 201.143C343.209 199.559 342.844 197.669 342.6 195.475C342.478 193.281 342.417 190.783 342.417 187.979C342.417 185.42 342.844 181.885 343.697 177.375C344.55 172.987 345.708 167.99 347.171 162.383C348.755 156.776 350.644 150.743 352.838 144.283C355.032 137.701 357.47 131.058 360.151 124.355C363.442 115.944 366.307 108.692 368.744 102.598C371.182 96.3815 373.193 91.0186 374.778 86.5087C376.484 81.9989 377.825 78.2814 378.8 75.3561C379.897 72.4308 380.75 69.9322 381.36 67.8601C381.847 66.3974 382.579 64.6301 383.554 62.558C384.529 60.486 385.626 58.4139 386.845 56.3418C388.185 54.1478 389.526 52.1367 390.867 50.3084C392.208 48.3582 393.427 46.8956 394.524 45.9205C398.79 46.5299 402.812 47.6269 406.59 49.2114C410.369 50.796 412.685 52.3196 413.538 53.7822C411.831 55.3667 409.881 57.8654 407.687 61.2782C405.493 64.5692 403.36 68.2257 401.288 72.248C399.216 76.1484 397.327 80.1706 395.62 84.3148C393.914 88.4589 392.634 92.1155 391.781 95.2846C393 93.2125 394.584 90.9576 396.535 88.5199C398.485 86.0821 401.471 82.7303 405.493 78.4642C410.003 73.8325 414.208 70.2978 418.109 67.8601C422.131 65.3005 425.605 64.0207 428.53 64.0207C433.162 64.0207 436.94 65.3005 439.865 67.8601C442.912 70.4197 444.436 73.7106 444.436 77.7329C444.436 86.5087 442.973 95.2236 440.048 103.878C437.123 112.41 432.918 120.149 427.433 127.097C425.361 129.778 422.923 132.338 420.12 134.776C417.316 137.214 414.391 139.408 411.344 141.358C408.297 143.186 405.31 144.649 402.385 145.746C399.46 146.843 396.839 147.391 394.524 147.391C392.33 147.391 390.379 146.964 388.673 146.111C387.088 145.136 385.991 143.978 385.382 142.638C390.136 139.834 394.767 135.934 399.277 130.936C403.787 125.939 407.931 120.21 411.71 113.75C415.61 107.169 418.962 100.099 421.765 92.5421C424.69 84.9852 426.884 77.3063 428.347 69.5056C423.715 71.9433 419.51 74.6248 415.732 77.5501C412.075 80.3535 408.419 84.071 404.762 88.7027C400.374 94.0657 396.9 98.3927 394.341 101.684C391.781 104.975 389.648 107.778 387.942 110.094C386.357 112.41 385.016 114.604 383.919 116.676C382.944 118.626 381.847 121.064 380.628 123.989C378.922 127.889 376.911 133.069 374.595 139.529C372.401 145.868 370.085 152.998 367.648 160.92C365.332 168.843 362.955 177.253 360.517 186.151C358.201 195.171 355.946 204.129 353.752 213.027C352.412 212.783 351.254 211.808 350.279 210.102C349.304 209.005 348.572 208.213 348.085 207.725C347.719 207.237 347.232 206.872 346.622 206.628Z" fill="white"/>
<path d="M325.844 89.9825C323.894 90.1044 321.517 91.3842 318.713 93.8219C315.91 96.1378 312.863 99.185 309.572 102.963C306.403 106.62 303.051 110.703 299.516 115.213C296.103 119.723 292.752 124.233 289.461 128.742C286.292 133.13 283.305 137.275 280.502 141.175C277.699 145.075 275.322 148.183 273.372 150.499C270.69 149.402 268.374 147.818 266.424 145.746C264.474 143.552 263.072 140.87 262.219 137.701C262.828 133.923 263.682 130.022 264.779 126C265.876 121.856 267.277 117.59 268.984 113.202C270.812 108.814 273.006 104.243 275.566 99.4897C278.247 94.6142 281.477 89.495 285.256 84.132C283.427 84.2538 280.929 85.5946 277.759 88.1542C274.59 90.5919 271.178 93.8219 267.521 97.8442C263.864 101.745 260.086 106.193 256.186 111.191C252.285 116.066 248.629 120.881 245.216 125.634C240.706 131.972 236.927 137.518 233.88 142.272C230.955 147.025 228.822 149.829 227.481 150.682C224.312 148.366 222.118 145.868 220.899 143.186C219.681 140.505 218.766 137.518 218.157 134.227C218.279 131.302 218.705 127.645 219.437 123.258C220.29 118.87 221.448 114.36 222.911 109.728C225.714 100.83 229.31 91.9936 233.697 83.2178C238.207 74.442 242.534 66.3975 246.678 59.0843C250.091 59.8156 253.138 60.9735 255.82 62.558C258.623 64.1425 261.549 66.4584 264.596 69.5056C263.377 73.284 261.488 77.3063 258.928 81.5723C256.368 85.7165 253.687 90.1044 250.883 94.7361C248.08 99.3678 245.52 104.121 243.205 108.997C240.889 113.872 239.365 118.809 238.634 123.806C242.047 118.931 246.069 113.324 250.701 106.986C255.454 100.648 260.269 94.6751 265.144 89.0684C270.142 83.4616 275.078 78.708 279.953 74.8076C284.829 70.9073 289.217 68.9571 293.117 68.9571C294.58 68.9571 296.164 69.2009 297.871 69.6884C299.577 70.1759 301.162 70.7854 302.624 71.5167C304.087 72.248 305.306 72.9793 306.281 73.7106C307.256 74.3201 307.805 74.8076 307.926 75.1733C307.317 77.611 305.854 80.9629 303.538 85.2289C301.345 89.3731 298.968 93.761 296.408 98.3927C293.848 103.024 291.472 107.534 289.278 111.922C287.084 116.188 285.804 119.601 285.438 122.161C291.411 113.994 297.018 106.62 302.259 100.038C307.5 93.3344 312.436 87.6057 317.068 82.8521C321.7 78.0986 325.966 74.442 329.866 71.8824C333.888 69.3227 337.667 68.0429 341.201 68.0429C343.639 68.0429 345.894 68.7133 347.966 70.0541C350.16 71.2729 351.684 73.1012 352.537 75.5389C351.44 79.1955 349.612 83.5835 347.052 88.7027C344.614 93.8219 342.116 99.2459 339.556 104.975C336.996 110.581 334.681 116.127 332.608 121.612C330.658 127.097 329.683 132.033 329.683 136.421C329.683 138.981 330.049 140.687 330.78 141.541C331.511 142.272 332.548 142.638 333.888 142.638C335.351 142.638 336.692 142.394 337.911 141.906C339.251 141.297 340.226 140.992 340.836 140.992C341.567 141.48 341.994 142.089 342.116 142.82C342.237 143.552 342.298 144.222 342.298 144.831C339.861 146.782 337.362 148.366 334.802 149.585C332.243 150.926 329.378 151.596 326.209 151.596C323.284 151.596 320.846 151.109 318.896 150.134C317.068 149.158 315.544 147.818 314.325 146.111C313.107 144.405 312.253 142.455 311.766 140.261C311.278 138.067 311.035 135.69 311.035 133.13C311.035 128.986 311.583 124.903 312.68 120.881C313.777 116.737 315.057 112.836 316.519 109.18C318.104 105.401 319.749 101.927 321.456 98.7583C323.162 95.4674 324.625 92.5421 325.844 89.9825Z" fill="white"/>
<path d="M180.268 142.089C177.952 140.139 176.368 137.701 175.515 134.776C174.783 131.851 174.418 129.352 174.418 127.28C174.418 124.72 174.722 122.526 175.332 120.698C174.844 120.698 173.747 121.673 172.041 123.623C170.335 125.573 168.445 127.889 166.373 130.571C164.423 133.252 162.473 135.873 160.523 138.432C158.572 140.992 157.11 142.881 156.135 144.1C154.55 145.807 153.027 147.147 151.564 148.122C150.223 149.098 149.126 149.646 148.273 149.768C146.323 149.646 144.251 149.219 142.057 148.488C139.985 147.879 137.974 146.965 136.023 145.746C134.195 144.527 132.55 143.064 131.087 141.358C129.746 139.651 128.832 137.701 128.345 135.507C128.345 132.094 128.406 129.291 128.527 127.097C128.771 124.903 129.198 122.526 129.807 119.967C130.904 115.335 132.489 110.094 134.561 104.243C136.755 98.3927 139.253 92.664 142.057 87.0572C144.86 81.3286 147.968 76.0265 151.381 71.151C154.916 66.1537 158.633 62.2533 162.534 59.4499C163.631 59.4499 164.911 59.5718 166.373 59.8156C167.836 59.9375 169.299 60.2422 170.761 60.7297C172.346 61.2173 173.808 61.8267 175.149 62.558C176.612 63.1675 177.831 64.0207 178.806 65.1177C177.709 66.3365 174.905 70.4197 170.395 77.3672C166.008 84.3148 161.071 94.3095 155.586 107.351C154.977 108.692 154.246 110.642 153.392 113.202C152.539 115.762 151.686 118.443 150.833 121.246C149.979 124.05 149.248 126.792 148.639 129.474C148.151 132.155 147.907 134.288 147.907 135.873C147.907 136.848 148.029 137.579 148.273 138.067C148.639 138.554 148.943 138.92 149.187 139.164C151.016 138.432 153.331 136.421 156.135 133.13C158.938 129.839 162.839 124.781 167.836 117.955C169.055 116.249 170.456 114.299 172.041 112.105C173.747 109.911 175.454 107.595 177.16 105.157C178.867 102.598 180.451 99.9772 181.914 97.2957C183.498 94.6142 184.778 91.9327 185.753 89.2512C186.241 87.7886 186.85 86.0821 187.581 84.132C188.435 82.0599 189.41 79.9269 190.507 77.7329C191.726 75.539 193.066 73.345 194.529 71.151C196.114 68.8352 197.942 66.7022 200.014 64.752C201.598 64.752 203.305 64.9348 205.133 65.3005C206.961 65.6661 208.668 66.1537 210.252 66.7631C211.959 67.2507 213.421 67.8601 214.64 68.5914C215.859 69.2008 216.773 69.8712 217.383 70.6026C215.189 75.9656 212.751 81.2676 210.07 86.5088C207.388 91.7499 204.889 96.9301 202.574 102.049C200.258 107.047 198.308 112.044 196.723 117.041C195.138 122.039 194.346 126.914 194.346 131.668C194.346 134.227 194.529 136.482 194.895 138.432C195.382 140.261 195.87 141.845 196.357 143.186C196.845 144.405 197.271 145.441 197.637 146.294C198.125 147.147 198.368 147.879 198.368 148.488C198.368 148.61 198.247 148.793 198.003 149.037C197.881 149.158 197.759 149.219 197.637 149.219C196.784 149.219 195.687 149.037 194.346 148.671C193.005 148.305 191.482 147.757 189.775 147.025C188.191 146.416 186.545 145.685 184.839 144.831C183.255 143.978 181.731 143.064 180.268 142.089Z" fill="white"/>
<path d="M108.238 11C112.869 11 117.684 11.8532 122.681 13.5596C127.679 15.266 132.066 17.46 135.845 20.1415C134.626 26.3577 133.468 31.9645 132.371 36.9618C131.396 41.9592 130.482 46.5299 129.629 50.6741C128.776 54.6963 127.922 58.4139 127.069 61.8267C126.338 65.1176 125.606 68.2257 124.875 71.151C121.95 82.1208 118.903 92.0546 115.734 100.952C112.686 109.728 109.396 117.651 105.861 124.72C102.448 131.79 98.7914 138.067 94.891 143.552C91.1125 149.037 87.0293 153.851 82.6414 157.995C78.3754 162.017 74.1094 165.308 69.8433 167.868C65.5773 170.428 61.616 172.073 57.9594 172.804C53.0839 172.804 48.5741 172.256 44.43 171.159C40.2858 170.062 36.6902 168.538 33.643 166.588C30.7177 164.76 28.4019 162.505 26.6955 159.824C25.111 157.264 24.3187 154.4 24.3187 151.23C24.3187 147.818 25.1719 143.552 26.8783 138.432C28.5847 133.191 31.2053 127.036 34.74 119.967C36.2026 120.088 37.9091 120.454 39.8592 121.064C41.8094 121.673 43.7596 122.404 45.7098 123.258C47.66 124.111 49.4273 125.086 51.0119 126.183C52.5964 127.158 53.7543 128.133 54.4856 129.108C50.5853 133.13 47.4162 137.579 44.9785 142.455C42.5407 147.208 41.3219 151.352 41.3219 154.887C41.3219 156.959 41.6875 158.787 42.4189 160.372C43.2721 162.078 44.6738 163.602 46.6239 164.943C54.059 162.139 61.3113 156.898 68.3807 149.219C75.4501 141.662 81.7273 132.216 87.2122 120.881C90.5031 114.177 93.4893 106.498 96.1708 97.8442C98.8523 89.1902 101.107 80.5363 102.936 71.8823C104.886 63.1065 106.348 54.7573 107.323 46.8346C108.42 38.7901 108.969 32.0254 108.969 26.5405C108.969 25.6873 108.908 24.5294 108.786 23.0668C108.786 21.4822 108.725 19.8977 108.603 18.3132C108.603 16.6068 108.542 15.0832 108.42 13.7424C108.299 12.4017 108.238 11.4875 108.238 11Z" fill="white"/>
<path d="M662.538 327.204C662.538 321.171 663.977 312.738 666.857 301.905C669.737 290.935 673.782 278.183 678.992 263.648C687.494 240.474 695.447 221.209 702.852 205.851C710.393 190.356 717.729 178.289 724.86 169.651C726.505 169.925 728.494 170.61 730.825 171.707C733.293 172.804 735.692 174.039 738.024 175.41C740.355 176.644 742.411 177.947 744.194 179.318C746.114 180.689 747.348 181.786 747.896 182.609C737.201 195.224 727.808 208.799 719.718 223.334C711.627 237.869 704.223 254.529 697.504 273.315C691.745 289.496 687.357 304.099 684.34 317.126C681.323 330.015 679.815 340.779 679.815 349.418C679.815 351.749 679.815 353.189 679.815 353.737C679.815 354.286 679.884 354.834 680.021 355.383C678.101 355.109 676.456 354.629 675.084 353.943C673.713 353.258 672.822 352.435 672.41 351.475C672.136 350.789 671.382 349.761 670.148 348.39C668.914 347.156 667.817 346.196 666.857 345.51C665.623 344.687 664.594 342.562 663.772 339.134C662.949 335.569 662.538 331.592 662.538 327.204Z" fill="white"/>
<path d="M613.929 327.204C613.929 321.171 615.369 312.738 618.248 301.905C621.128 290.935 625.173 278.183 630.384 263.648C638.885 240.474 646.838 221.209 654.243 205.851C661.785 190.356 669.121 178.289 676.251 169.651C677.896 169.925 679.885 170.61 682.216 171.707C684.684 172.804 687.084 174.039 689.415 175.41C691.746 176.644 693.803 177.947 695.585 179.318C697.505 180.689 698.739 181.786 699.288 182.609C688.592 195.224 679.199 208.799 671.109 223.334C663.019 237.869 655.614 254.529 648.895 273.315C643.136 289.496 638.748 304.099 635.731 317.126C632.715 330.015 631.206 340.779 631.206 349.418C631.206 351.749 631.206 353.189 631.206 353.737C631.206 354.286 631.275 354.834 631.412 355.383C629.492 355.109 627.847 354.629 626.476 353.943C625.104 353.258 624.213 352.435 623.802 351.475C623.527 350.789 622.773 349.761 621.539 348.39C620.305 347.156 619.208 346.196 618.248 345.51C617.014 344.687 615.986 342.562 615.163 339.134C614.34 335.569 613.929 331.592 613.929 327.204Z" fill="white"/>
<path d="M588.48 257.272C589.852 257.272 591.428 257.546 593.211 258.095C595.131 258.506 596.845 259.123 598.353 259.946C599.861 260.631 601.096 261.386 602.055 262.208C603.152 263.031 603.701 263.785 603.701 264.471C600.958 270.23 598.422 276.058 596.091 281.954C593.759 287.713 591.771 293.267 590.126 298.614C588.48 303.962 587.178 308.967 586.218 313.629C585.395 318.291 584.984 322.336 584.984 325.765C584.984 329.604 585.395 332.826 586.218 335.432C587.04 337.9 588.412 339.682 590.331 340.779C588.686 341.876 586.561 342.768 583.955 343.453C581.35 344.139 579.019 344.482 576.962 344.482C569.557 344.482 565.855 339.408 565.855 329.261C565.855 321.445 568.46 310.75 573.671 297.175C570.929 303.482 567.775 309.447 564.21 315.069C560.644 320.554 557.011 325.422 553.308 329.672C549.606 333.923 545.835 337.42 541.996 340.162C538.293 342.768 534.865 344.345 531.712 344.893C526.638 344.619 522.524 342.219 519.371 337.694C516.217 333.032 514.64 327.136 514.64 320.005C514.64 312.327 516.285 304.236 519.576 295.735C522.867 287.233 527.049 279.349 532.123 272.081C537.334 264.814 542.956 258.78 548.989 253.981C555.022 249.045 560.85 246.439 566.472 246.165C567.843 246.576 569.352 247.399 570.997 248.633C572.78 249.867 574.425 251.307 575.934 252.953C577.579 254.598 578.95 256.312 580.047 258.095C581.144 259.74 581.761 261.18 581.898 262.414C576.414 263.237 570.723 265.911 564.827 270.436C559.068 274.961 553.788 280.446 548.989 286.89C544.327 293.198 540.487 299.986 537.471 307.253C534.454 314.52 532.946 321.308 532.946 327.616C532.946 330.221 533.906 331.866 535.825 332.552C539.802 331.729 544.395 328.37 549.606 322.474C554.817 316.44 561.124 307.184 568.529 294.706C569.9 292.238 571.409 289.496 573.054 286.479C574.837 283.462 576.619 280.308 578.402 277.018C580.184 273.727 581.898 270.436 583.544 267.145C585.326 263.717 586.972 260.426 588.48 257.272Z" fill="white"/>
<path d="M512.223 227.036C512.223 235.538 509.892 243.148 505.23 249.867C500.568 256.449 494.191 261.934 486.101 266.322C491.312 269.887 495.426 274.275 498.442 279.486C501.596 284.559 503.173 290.181 503.173 296.352C503.173 303.756 500.91 311.092 496.385 318.36C491.998 325.49 486.101 331.866 478.697 337.488C471.292 342.973 462.859 347.43 453.398 350.858C443.936 354.286 434.269 356 424.396 356C413.701 356 404.308 353.943 396.218 349.83C388.264 345.853 382.025 340.162 377.5 332.758C378.872 328.644 380.654 323.571 382.848 317.537C385.179 311.367 387.716 304.922 390.458 298.203C393.201 291.347 395.943 284.559 398.686 277.84C401.565 271.121 404.239 265.088 406.707 259.74C411.918 248.085 416.58 238.418 420.694 230.739C424.808 223.06 428.578 216.958 432.006 212.433C424.465 214.764 417.609 217.438 411.438 220.455C405.268 223.334 400.743 226.145 397.863 228.888C396.629 228.065 395.326 226.831 393.955 225.185C392.721 223.54 391.487 221.757 390.253 219.837C389.156 217.781 388.196 215.724 387.373 213.667C386.688 211.61 386.276 209.759 386.139 208.113C389.704 205.645 394.298 203.314 399.92 201.12C405.679 198.789 411.918 196.801 418.637 195.155C425.356 193.51 432.212 192.207 439.205 191.247C446.336 190.288 453.123 189.808 459.568 189.808C476.023 189.808 488.912 193.099 498.237 199.68C507.561 206.262 512.223 215.381 512.223 227.036ZM433.858 276.195C431.252 274.961 428.853 273.11 426.659 270.641C423.505 277.635 420.488 284.491 417.609 291.21C414.866 297.929 412.398 304.168 410.204 309.927C408.01 315.686 406.227 320.691 404.856 324.942C403.485 329.193 402.731 332.278 402.594 334.198C404.513 335.295 406.776 336.117 409.381 336.666C412.124 337.214 415.483 337.488 419.46 337.488C428.784 337.488 437.697 336.186 446.199 333.581C454.7 330.975 462.173 327.479 468.618 323.091C475.063 318.566 480.205 313.424 484.044 307.664C487.884 301.905 489.804 295.872 489.804 289.564C489.804 280.514 485.896 274.001 478.08 270.024C467.384 274.412 455.317 276.606 441.879 276.606C439.96 276.606 438.451 276.606 437.354 276.606C436.394 276.606 435.229 276.469 433.858 276.195ZM473.76 204.823C470.881 204.823 467.795 205.028 464.504 205.44C461.351 205.714 457.991 206.194 454.426 206.879C454.974 207.428 455.386 208.045 455.66 208.731C456.071 209.279 456.414 209.896 456.688 210.582C455.454 212.227 453.946 214.627 452.163 217.781C450.381 220.934 448.393 224.637 446.199 228.888C444.005 233.001 441.674 237.595 439.205 242.668C436.874 247.742 434.475 252.953 432.006 258.3C434.338 257.752 437.149 257.34 440.439 257.066C443.868 256.655 447.227 256.449 450.518 256.449C452.301 256.449 454.015 256.518 455.66 256.655C457.443 256.792 459.157 256.998 460.802 257.272C467.384 256.175 473.28 254.598 478.491 252.541C483.839 250.347 488.432 247.879 492.272 245.137C496.111 242.257 499.059 239.103 501.116 235.675C503.173 232.247 504.201 228.613 504.201 224.774C504.201 218.192 501.596 213.256 496.385 209.965C491.175 206.537 483.633 204.823 473.76 204.823Z" fill="white"/>
<path d="M528.725 64.8054C531.919 65.7881 534.929 67.9994 537.754 71.4392C540.58 74.7561 542.668 78.4415 544.02 82.4955C542.668 85.8125 540.58 89.805 537.754 94.4733C534.929 99.1415 532.103 103.933 529.278 108.847C526.452 113.638 523.872 118.245 521.538 122.667C519.327 126.967 518.037 130.529 517.669 133.355C519.634 131.266 521.784 128.871 524.118 126.168C526.575 123.343 528.909 120.579 531.121 117.876C533.455 115.05 535.604 112.532 537.57 110.321C539.536 107.987 541.071 106.267 542.177 105.161C544.511 102.704 547.275 99.8786 550.469 96.6846C553.663 93.3677 556.98 90.2964 560.42 87.4709C563.983 84.5226 567.545 82.0656 571.108 80.1C574.67 78.0116 577.926 76.9674 580.874 76.9674C584.068 76.9674 586.71 78.073 588.798 80.2843C591.009 82.3727 592.729 84.584 593.958 86.9181C593.958 87.1638 593.466 87.5324 592.483 88.0237C591.623 88.3923 590.334 89.5593 588.614 91.5249C586.894 93.7362 584.928 96.8074 582.717 100.739C580.629 104.547 578.54 108.724 576.452 113.269C574.486 117.692 572.828 122.237 571.476 126.905C570.125 131.574 569.449 135.812 569.449 139.62C569.449 142.691 569.818 144.657 570.555 145.517C571.415 146.377 572.582 146.807 574.056 146.807C575.407 146.807 576.82 146.5 578.294 145.885C579.769 145.271 580.936 144.964 581.796 144.964C582.287 145.21 582.655 145.763 582.901 146.623C583.27 147.36 583.454 148.035 583.454 148.65C582.471 149.509 581.304 150.369 579.953 151.229C578.601 152.089 577.189 152.888 575.715 153.625C574.24 154.362 572.766 154.976 571.292 155.468C569.941 155.959 568.712 156.205 567.607 156.205C564.044 156.205 561.096 155.652 558.761 154.546C556.55 153.563 554.769 152.212 553.418 150.492C552.189 148.772 551.329 146.745 550.838 144.411C550.346 141.954 550.101 139.374 550.101 136.672C550.101 135.198 550.223 133.539 550.469 131.696C550.715 129.854 551.206 127.704 551.943 125.247C552.68 122.667 553.725 119.657 555.076 116.217C556.427 112.655 558.147 108.417 560.236 103.503C559.99 103.503 558.332 104.363 555.26 106.082C552.189 107.802 548.872 110.444 545.31 114.006C539.536 119.534 534.315 125.001 529.646 130.407C525.101 135.812 520.433 141.831 515.642 148.465C512.939 152.274 510.543 155.468 508.455 158.047C506.489 160.75 504.769 162.531 503.295 163.391C500.715 161.917 498.811 159.829 497.583 157.126C496.354 154.546 495.433 151.844 494.819 149.018C494.819 146.684 495.126 143.736 495.74 140.173C496.477 136.61 497.399 132.679 498.504 128.38C499.733 123.957 501.207 119.35 502.927 114.559C504.647 109.768 506.551 104.977 508.639 100.186C513.307 89.3751 517.546 80.8985 521.354 74.7561C525.285 68.6137 527.742 65.2968 528.725 64.8054Z" fill="#C1272D"/>
<path d="M455.508 141.831C455.508 140.726 455.57 139.374 455.692 137.777C455.938 136.057 456.307 133.846 456.798 131.144C457.289 128.318 457.904 124.94 458.641 121.008C459.501 117.077 460.545 112.348 461.773 106.819C462.019 105.591 462.572 103.625 463.432 100.923C464.292 98.2201 465.397 95.3946 466.749 92.4462C468.223 89.375 469.943 86.4266 471.908 83.6011C473.997 80.7756 476.454 78.6871 479.279 77.3358C481.368 77.8272 484.132 79.1171 487.572 81.2055C491.011 83.1711 493.96 85.9352 496.417 89.4978C493.591 92.6919 491.196 95.886 489.23 99.08C487.387 102.274 485.667 105.591 484.07 109.031C482.596 112.471 481.184 116.033 479.832 119.719C478.604 123.404 477.191 127.274 475.594 131.328C474.243 134.768 473.014 138.33 471.908 142.016C470.803 145.578 470.189 148.711 470.066 151.414C470.066 153.625 470.004 155.16 469.881 156.02C469.881 157.003 469.574 157.495 468.96 157.495C468.469 157.495 467.486 157.187 466.012 156.573C464.538 155.959 463.002 155.038 461.405 153.809C459.931 152.458 458.579 150.799 457.351 148.834C456.122 146.868 455.508 144.534 455.508 141.831ZM490.704 61.8569C490.704 61.1198 490.889 60.0142 491.257 58.54C490.643 57.9257 490.09 57.0044 489.599 55.7759C489.23 54.5474 489.046 53.4418 489.046 52.459C489.046 51.3533 489.169 49.8791 489.414 48.0364C489.783 46.0708 490.213 43.9824 490.704 41.7711C491.196 39.5599 491.81 37.2872 492.547 34.953C493.284 32.4961 494.021 30.2848 494.758 28.3192C496.232 28.3192 498.014 28.7492 500.102 29.6091C502.313 30.3462 504.525 31.3904 506.736 32.7418C508.947 33.9702 510.974 35.383 512.817 36.98C514.66 38.4542 516.072 39.867 517.055 41.2183C515.704 42.5696 513.923 44.4738 511.711 46.9308C509.5 49.2649 507.35 51.7833 505.262 54.486C503.173 57.0658 501.269 59.5228 499.549 61.8569C497.829 64.191 496.724 65.8495 496.232 66.8323C494.758 66.5866 493.468 65.9723 492.363 64.9895C491.257 63.8839 490.704 62.8397 490.704 61.8569Z" fill="#C1272D"/>
<path d="M350.095 215.172C348.376 214.681 347.393 212.838 347.147 209.644C346.656 208.047 346.287 206.143 346.041 203.931C345.919 201.72 345.857 199.202 345.857 196.376C345.857 193.796 346.287 190.234 347.147 185.688C348.007 181.266 349.174 176.229 350.648 170.578C352.245 164.927 354.149 158.846 356.361 152.335C358.572 145.701 361.029 139.006 363.732 132.249C367.049 123.773 369.935 116.463 372.392 110.321C374.849 104.055 376.876 98.6501 378.473 94.1047C380.193 89.5593 381.545 85.8124 382.527 82.8641C383.633 79.9157 384.493 77.3973 385.107 75.3089C385.599 73.8347 386.336 72.0534 387.319 69.965C388.301 67.8765 389.407 65.7881 390.635 63.6997C391.987 61.4884 393.338 59.4614 394.689 57.6187C396.041 55.6531 397.269 54.1789 398.375 53.1961C402.675 53.8104 406.729 54.916 410.537 56.5131C414.345 58.1101 416.679 59.6457 417.539 61.1199C415.819 62.7169 413.854 65.2353 411.643 68.6751C409.431 71.992 407.281 75.6774 405.193 79.7314C403.105 83.6626 401.2 87.7166 399.481 91.8934C397.761 96.0703 396.471 99.7558 395.611 102.95C396.839 100.861 398.436 98.5887 400.402 96.1317C402.367 93.6748 405.377 90.2964 409.431 85.9967C413.977 81.3285 418.215 77.7659 422.146 75.3089C426.2 72.7291 429.701 71.4392 432.65 71.4392C437.318 71.4392 441.126 72.7291 444.075 75.3089C447.146 77.8887 448.681 81.2056 448.681 85.2596C448.681 94.1047 447.207 102.888 444.259 111.611C441.311 120.21 437.072 128.011 431.544 135.013C429.456 137.716 426.999 140.296 424.173 142.753C421.348 145.21 418.399 147.421 415.328 149.387C412.257 151.229 409.247 152.704 406.299 153.809C403.35 154.915 400.709 155.468 398.375 155.468C396.164 155.468 394.198 155.038 392.478 154.178C390.881 153.195 389.776 152.028 389.161 150.677C393.952 147.851 398.621 143.92 403.166 138.883C407.711 133.846 411.888 128.072 415.697 121.561C419.628 114.928 423.006 107.802 425.832 100.186C428.78 92.5691 430.991 84.8297 432.465 76.9673C427.797 79.4243 423.559 82.127 419.751 85.0754C416.065 87.9009 412.38 91.6478 408.694 96.316C404.272 101.721 400.77 106.082 398.191 109.399C395.611 112.716 393.461 115.542 391.741 117.876C390.144 120.21 388.793 122.421 387.687 124.51C386.704 126.475 385.599 128.932 384.37 131.881C382.65 135.812 380.623 141.033 378.289 147.544C376.078 153.932 373.744 161.119 371.287 169.104C368.953 177.089 366.557 185.566 364.1 194.533C361.766 203.624 359.493 212.654 357.282 221.622C355.931 221.376 354.764 220.393 353.781 218.673C352.798 217.568 352.061 216.769 351.57 216.278C351.201 215.786 350.71 215.418 350.095 215.172Z" fill="#C1272D"/>
<path d="M329.153 97.6059C327.187 97.7287 324.792 99.0187 321.966 101.476C319.141 103.81 316.07 106.881 312.753 110.689C309.559 114.375 306.18 118.49 302.618 123.036C299.178 127.581 295.8 132.126 292.483 136.672C289.289 141.094 286.279 145.271 283.453 149.202C280.628 153.133 278.232 156.266 276.267 158.6C273.564 157.495 271.23 155.898 269.264 153.809C267.299 151.598 265.886 148.895 265.026 145.701C265.64 141.893 266.5 137.962 267.606 133.908C268.712 129.731 270.124 125.431 271.844 121.009C273.687 116.586 275.898 111.979 278.478 107.188C281.181 102.274 284.436 97.1145 288.244 91.7092C286.402 91.832 283.883 93.1833 280.689 95.7632C277.495 98.2201 274.055 101.476 270.37 105.53C266.685 109.461 262.876 113.945 258.945 118.982C255.014 123.896 251.328 128.748 247.889 133.539C243.343 139.927 239.535 145.517 236.464 150.308C233.515 155.099 231.366 157.925 230.014 158.785C226.82 156.45 224.609 153.932 223.38 151.229C222.152 148.527 221.231 145.517 220.616 142.2C220.739 139.252 221.169 135.566 221.906 131.144C222.766 126.721 223.933 122.176 225.407 117.507C228.233 108.539 231.857 99.6329 236.279 90.7878C240.825 81.9427 245.186 73.8347 249.363 66.4638C252.803 67.2009 255.874 68.3679 258.577 69.965C261.402 71.562 264.35 73.8961 267.422 76.9673C266.193 80.7756 264.289 84.8296 261.709 89.1293C259.129 93.3062 256.427 97.7288 253.601 102.397C250.776 107.065 248.196 111.856 245.862 116.77C243.528 121.684 241.992 126.66 241.255 131.696C244.695 126.782 248.749 121.131 253.417 114.743C258.208 108.355 263.061 102.336 267.974 96.6845C273.011 91.0335 277.987 86.2424 282.901 82.3113C287.814 78.3801 292.237 76.4145 296.168 76.4145C297.642 76.4145 299.239 76.6602 300.959 77.1516C302.679 77.643 304.276 78.2572 305.75 78.9943C307.225 79.7314 308.453 80.4685 309.436 81.2056C310.419 81.8198 310.971 82.3112 311.094 82.6798C310.48 85.1368 309.006 88.5151 306.672 92.8148C304.46 96.9917 302.065 101.414 299.485 106.082C296.905 110.751 294.51 115.296 292.298 119.719C290.087 124.018 288.797 127.458 288.429 130.038C294.448 121.807 300.099 114.375 305.382 107.741C310.664 100.984 315.64 95.2104 320.308 90.4193C324.976 85.6282 329.276 81.9427 333.207 79.3629C337.261 76.7831 341.069 75.4931 344.632 75.4931C347.089 75.4931 349.362 76.1688 351.45 77.5202C353.661 78.7486 355.197 80.5914 356.057 83.0483C354.951 86.7338 353.109 91.1563 350.529 96.316C348.072 101.476 345.553 106.942 342.974 112.716C340.394 118.367 338.06 123.957 335.971 129.485C334.006 135.013 333.023 139.989 333.023 144.411C333.023 146.991 333.391 148.711 334.128 149.571C334.866 150.308 335.91 150.676 337.261 150.676C338.735 150.676 340.087 150.431 341.315 149.939C342.666 149.325 343.649 149.018 344.263 149.018C345.001 149.509 345.43 150.124 345.553 150.861C345.676 151.598 345.738 152.274 345.738 152.888C343.281 154.853 340.762 156.45 338.182 157.679C335.603 159.03 332.716 159.706 329.522 159.706C326.573 159.706 324.116 159.214 322.151 158.232C320.308 157.249 318.772 155.898 317.544 154.178C316.315 152.458 315.455 150.492 314.964 148.281C314.473 146.07 314.227 143.674 314.227 141.094C314.227 136.917 314.78 132.802 315.885 128.748C316.991 124.571 318.281 120.64 319.755 116.955C321.352 113.146 323.011 109.645 324.731 106.451C326.45 103.134 327.925 100.186 329.153 97.6059Z" fill="#C1272D"/>
<path d="M182.429 150.124C180.094 148.158 178.497 145.701 177.638 142.753C176.9 139.804 176.532 137.286 176.532 135.198C176.532 132.618 176.839 130.406 177.453 128.564C176.962 128.564 175.856 129.547 174.136 131.512C172.416 133.478 170.512 135.812 168.424 138.514C166.458 141.217 164.493 143.858 162.527 146.438C160.562 149.018 159.087 150.922 158.105 152.151C156.508 153.871 154.972 155.222 153.498 156.205C152.146 157.187 151.041 157.74 150.181 157.863C148.215 157.74 146.127 157.31 143.916 156.573C141.827 155.959 139.8 155.038 137.835 153.809C135.992 152.581 134.333 151.106 132.859 149.387C131.508 147.667 130.586 145.701 130.095 143.49C130.095 140.05 130.157 137.225 130.279 135.013C130.525 132.802 130.955 130.406 131.569 127.827C132.675 123.158 134.272 117.876 136.36 111.979C138.572 106.082 141.09 100.309 143.916 94.6575C146.741 88.8836 149.874 83.5397 153.313 78.6258C156.876 73.589 160.623 69.6578 164.554 66.8323C165.66 66.8323 166.95 66.9552 168.424 67.2009C169.898 67.3237 171.372 67.6308 172.846 68.1222C174.443 68.6136 175.918 69.2279 177.269 69.9649C178.743 70.5792 179.972 71.4391 180.954 72.5448C179.849 73.7733 177.023 77.8887 172.478 84.8911C168.055 91.8934 163.08 101.967 157.552 115.112C156.938 116.463 156.2 118.429 155.34 121.009C154.481 123.588 153.621 126.291 152.761 129.117C151.901 131.942 151.164 134.706 150.549 137.409C150.058 140.112 149.812 142.261 149.812 143.858C149.812 144.841 149.935 145.578 150.181 146.07C150.549 146.561 150.857 146.93 151.102 147.175C152.945 146.438 155.279 144.411 158.105 141.094C160.93 137.777 164.861 132.679 169.898 125.8C171.127 124.08 172.539 122.114 174.136 119.903C175.856 117.692 177.576 115.358 179.296 112.901C181.016 110.321 182.613 107.679 184.087 104.977C185.684 102.274 186.974 99.5715 187.957 96.8688C188.448 95.3946 189.062 93.6747 189.8 91.7092C190.659 89.6207 191.642 87.4709 192.748 85.2596C193.976 83.0483 195.328 80.8371 196.802 78.6258C198.399 76.2917 200.242 74.1418 202.33 72.1762C203.927 72.1762 205.647 72.3605 207.49 72.729C209.332 73.0976 211.052 73.589 212.649 74.2032C214.369 74.6946 215.843 75.3089 217.072 76.046C218.3 76.6602 219.222 77.3359 219.836 78.073C217.625 83.4783 215.168 88.8222 212.465 94.1047C209.762 99.3872 207.244 104.608 204.91 109.768C202.576 114.805 200.61 119.841 199.013 124.878C197.416 129.915 196.618 134.829 196.618 139.62C196.618 142.2 196.802 144.473 197.17 146.438C197.662 148.281 198.153 149.878 198.645 151.229C199.136 152.458 199.566 153.502 199.935 154.362C200.426 155.222 200.672 155.959 200.672 156.573C200.672 156.696 200.549 156.88 200.303 157.126C200.18 157.249 200.057 157.31 199.935 157.31C199.075 157.31 197.969 157.126 196.618 156.758C195.266 156.389 193.731 155.836 192.011 155.099C190.414 154.485 188.755 153.748 187.035 152.888C185.438 152.028 183.903 151.106 182.429 150.124Z" fill="#C1272D"/>
<path d="M109.829 18C114.498 18 119.35 18.8599 124.387 20.5798C129.424 22.2997 133.846 24.511 137.655 27.2136C136.426 33.4789 135.259 39.13 134.153 44.1668C133.171 49.2035 132.249 53.8104 131.389 57.9872C130.529 62.0412 129.669 65.7881 128.81 69.2279C128.072 72.5448 127.335 75.6774 126.598 78.6258C123.65 89.6822 120.579 99.6943 117.385 108.662C114.313 117.507 110.996 125.493 107.434 132.618C103.994 139.743 100.309 146.07 96.3775 151.598C92.5692 157.126 88.4538 161.979 84.0312 166.155C79.7315 170.209 75.4318 173.526 71.1321 176.106C66.8324 178.686 62.8398 180.344 59.1544 181.082C54.2404 181.082 49.695 180.529 45.5182 179.423C41.3413 178.317 37.7173 176.782 34.6461 174.816C31.6977 172.974 29.3636 170.701 27.6437 167.998C26.0467 165.418 25.2481 162.531 25.2481 159.337C25.2481 155.898 26.1081 151.598 27.828 146.438C29.5478 141.156 32.1891 134.952 35.7517 127.827C37.2259 127.95 38.9458 128.318 40.9113 128.932C42.8769 129.547 44.8425 130.284 46.8081 131.144C48.7736 132.004 50.555 132.986 52.152 134.092C53.749 135.075 54.9161 136.058 55.6532 137.04C51.722 141.094 48.528 145.578 46.071 150.492C43.614 155.283 42.3855 159.46 42.3855 163.023C42.3855 165.111 42.7541 166.954 43.4912 168.551C44.3511 170.271 45.7639 171.806 47.7294 173.158C55.2232 170.332 62.5327 165.05 69.6579 157.31C76.7831 149.694 83.1098 140.173 88.638 128.748C91.9549 121.991 94.9647 114.252 97.6674 105.53C100.37 96.8074 102.643 88.0851 104.486 79.3629C106.451 70.5178 107.925 62.1026 108.908 54.1175C110.014 46.0095 110.567 39.1914 110.567 33.6632C110.567 32.8033 110.505 31.6362 110.382 30.162C110.382 28.565 110.321 26.9679 110.198 25.3709C110.198 23.651 110.137 22.1154 110.014 20.7641C109.891 19.4128 109.829 18.4914 109.829 18Z" fill="#C1272D"/>
<path d="M668.504 336.7C668.504 330.619 669.956 322.119 672.858 311.201C675.76 300.145 679.837 287.292 685.089 272.642C693.658 249.286 701.674 229.868 709.137 214.389C716.738 198.772 724.132 186.61 731.318 177.903C732.977 178.179 734.981 178.87 737.33 179.976C739.818 181.082 742.237 182.325 744.586 183.707C746.936 184.951 749.009 186.264 750.805 187.646C752.74 189.028 753.984 190.134 754.537 190.963C743.757 203.678 734.29 217.36 726.136 232.01C717.982 246.66 710.519 263.452 703.747 282.386C697.942 298.694 693.519 313.413 690.479 326.542C687.438 339.533 685.918 350.382 685.918 359.089C685.918 361.439 685.918 362.89 685.918 363.443C685.918 363.995 685.987 364.548 686.126 365.101C684.191 364.825 682.532 364.341 681.15 363.65C679.768 362.959 678.87 362.13 678.455 361.162C678.179 360.471 677.419 359.435 676.175 358.053C674.931 356.809 673.825 355.841 672.858 355.15C671.614 354.321 670.577 352.179 669.748 348.724C668.919 345.131 668.504 341.123 668.504 336.7Z" fill="#C1272D"/>
<path d="M619.512 336.7C619.512 330.619 620.963 322.119 623.865 311.201C626.768 300.145 630.845 287.292 636.097 272.642C644.665 249.286 652.681 229.868 660.144 214.389C667.745 198.772 675.139 186.61 682.326 177.903C683.984 178.179 685.988 178.87 688.338 179.976C690.826 181.082 693.244 182.325 695.594 183.707C697.943 184.951 700.016 186.264 701.813 187.646C703.748 189.028 704.992 190.134 705.544 190.963C694.764 203.678 685.297 217.36 677.143 232.01C668.989 246.66 661.526 263.452 654.754 282.386C648.95 298.694 644.527 313.413 641.486 326.542C638.446 339.533 636.926 350.382 636.926 359.089C636.926 361.439 636.926 362.89 636.926 363.443C636.926 363.995 636.995 364.548 637.133 365.101C635.198 364.825 633.54 364.341 632.158 363.65C630.776 362.959 629.877 362.13 629.463 361.162C629.186 360.471 628.426 359.435 627.182 358.053C625.938 356.809 624.833 355.841 623.865 355.15C622.622 354.321 621.585 352.179 620.756 348.724C619.927 345.131 619.512 341.123 619.512 336.7Z" fill="#C1272D"/>
<path d="M593.863 266.216C595.245 266.216 596.834 266.492 598.631 267.045C600.565 267.46 602.293 268.081 603.813 268.911C605.334 269.602 606.577 270.362 607.545 271.191C608.65 272.02 609.203 272.78 609.203 273.471C606.439 279.276 603.882 285.15 601.533 291.092C599.183 296.897 597.179 302.494 595.521 307.884C593.863 313.274 592.55 318.319 591.582 323.018C590.753 327.717 590.338 331.794 590.338 335.249C590.338 339.119 590.753 342.366 591.582 344.992C592.411 347.48 593.793 349.277 595.728 350.382C594.07 351.488 591.928 352.386 589.302 353.077C586.676 353.768 584.326 354.114 582.253 354.114C574.79 354.114 571.059 349 571.059 338.773C571.059 330.895 573.685 320.115 578.936 306.433C576.172 312.791 572.994 318.803 569.4 324.469C565.807 329.997 562.145 334.903 558.413 339.188C554.682 343.472 550.881 346.996 547.011 349.76C543.28 352.386 539.825 353.976 536.646 354.528C531.532 354.252 527.386 351.833 524.207 347.273C521.029 342.574 519.439 336.631 519.439 329.444C519.439 321.705 521.098 313.551 524.415 304.982C527.732 296.413 531.947 288.467 537.06 281.142C542.312 273.817 547.979 267.736 554.06 262.899C560.141 257.923 566.014 255.297 571.681 255.021C573.063 255.436 574.583 256.265 576.241 257.509C578.038 258.753 579.697 260.204 581.217 261.862C582.875 263.521 584.257 265.248 585.363 267.045C586.469 268.703 587.091 270.154 587.229 271.398C581.701 272.228 575.965 274.923 570.022 279.483C564.218 284.044 558.897 289.572 554.06 296.068C549.361 302.425 545.491 309.266 542.45 316.591C539.41 323.916 537.89 330.757 537.89 337.115C537.89 339.741 538.857 341.399 540.792 342.09C544.8 341.261 549.43 337.875 554.682 331.932C559.933 325.851 566.291 316.522 573.754 303.946C575.136 301.458 576.656 298.694 578.315 295.653C580.111 292.613 581.908 289.434 583.704 286.117C585.501 282.8 587.229 279.483 588.887 276.166C590.684 272.711 592.342 269.394 593.863 266.216Z" fill="#C1272D"/>
<path d="M517.003 235.742C517.003 244.31 514.654 251.981 509.955 258.753C505.256 265.386 498.83 270.915 490.675 275.337C495.927 278.93 500.073 283.353 503.114 288.605C506.293 293.718 507.882 299.385 507.882 305.604C507.882 313.067 505.602 320.461 501.041 327.786C496.618 334.973 490.675 341.399 483.212 347.065C475.749 352.594 467.25 357.085 457.714 360.54C448.178 363.995 438.434 365.723 428.483 365.723C417.703 365.723 408.236 363.65 400.082 359.504C392.066 355.496 385.778 349.76 381.217 342.297C382.599 338.151 384.396 333.038 386.607 326.957C388.957 320.737 391.514 314.242 394.278 307.47C397.042 300.56 399.806 293.718 402.57 286.946C405.472 280.174 408.167 274.093 410.655 268.703C415.907 256.956 420.606 247.213 424.752 239.473C428.898 231.734 432.699 225.583 436.154 221.023C428.552 223.372 421.642 226.067 415.423 229.108C409.204 232.01 404.643 234.843 401.741 237.607C400.497 236.778 399.184 235.534 397.802 233.876C396.558 232.217 395.314 230.421 394.07 228.486C392.965 226.413 391.997 224.34 391.168 222.267C390.477 220.193 390.062 218.328 389.924 216.669C393.518 214.182 398.147 211.832 403.814 209.621C409.618 207.271 415.907 205.267 422.679 203.609C429.451 201.95 436.361 200.638 443.409 199.67C450.596 198.703 457.437 198.219 463.933 198.219C480.517 198.219 493.509 201.536 502.907 208.17C512.304 214.804 517.003 223.994 517.003 235.742ZM438.019 285.288C435.394 284.044 432.975 282.178 430.764 279.691C427.585 286.739 424.545 293.649 421.642 300.421C418.878 307.193 416.39 313.482 414.179 319.286C411.968 325.091 410.171 330.135 408.789 334.42C407.407 338.704 406.647 341.814 406.509 343.748C408.444 344.854 410.724 345.683 413.35 346.236C416.114 346.789 419.5 347.065 423.508 347.065C432.906 347.065 441.889 345.752 450.458 343.127C459.027 340.501 466.559 336.976 473.054 332.554C479.55 327.993 484.733 322.81 488.602 317.006C492.472 311.201 494.407 305.12 494.407 298.763C494.407 289.641 490.468 283.077 482.59 279.069C471.811 283.491 459.648 285.703 446.104 285.703C444.17 285.703 442.649 285.703 441.544 285.703C440.576 285.703 439.402 285.564 438.019 285.288ZM478.237 213.352C475.335 213.352 472.225 213.56 468.908 213.974C465.73 214.251 462.343 214.734 458.75 215.425C459.303 215.978 459.718 216.6 459.994 217.291C460.409 217.844 460.754 218.466 461.031 219.157C459.787 220.815 458.266 223.234 456.47 226.413C454.673 229.591 452.669 233.323 450.458 237.607C448.247 241.753 445.897 246.383 443.409 251.497C441.06 256.61 438.641 261.862 436.154 267.252C438.503 266.699 441.336 266.285 444.653 266.008C448.108 265.594 451.494 265.386 454.811 265.386C456.608 265.386 458.336 265.456 459.994 265.594C461.791 265.732 463.518 265.939 465.177 266.216C471.811 265.11 477.753 263.521 483.005 261.448C488.395 259.236 493.025 256.749 496.895 253.985C500.764 251.082 503.736 247.904 505.809 244.448C507.882 240.993 508.918 237.331 508.918 233.461C508.918 226.827 506.293 221.852 501.041 218.535C495.789 215.08 488.188 213.352 478.237 213.352Z" fill="#C1272D"/>
</svg>
