<svg width="440" height="79" viewBox="0 0 440 79" fill="none" xmlns="http://www.w3.org/2000/svg" style="">
<g id="Frame 1">
<path id="Vector 4" d="M52 38H388" stroke="white" stroke-opacity="0.15" stroke-width="74" stroke-linecap="round" class="gkuhfovC_0"></path>
<g id="Vector 1">
<path d="M52 16.7209C50.4 14.7209 46 14.8875 44 15.2209C42 15.2209 37.7 15.5209 36.5 16.7209C35 18.2209 34 19.7209 34 22.2209C34 24.2209 35 26.3875 35.5 27.2209C38.6667 36.8875 45.2 56.6209 46 58.2209C47 60.2209 47.5 61.7209 49.5 63.2209C51.5 64.7209 50.5 63.7209 54 63.7209H66C69.5 63.7209 69.5 63.7209 71.5 62.2209C73.1 61.0209 73.5 59.0542 73.5 58.2209C77.3333 47.2209 85 24.7209 85 22.7209C85 20.2209 85 19.2209 83 17.2209C81 15.2209 79.5 15.2209 75.5 15.2209C71.5 15.2209 70 15.2209 67 17.2209C64 19.2209 63.5 30.2209 63 34.7209C62.5 39.2209 62 49.2209 59.5 49.2209C57 49.2209 57 41.7209 56 34.7209C55 27.7209 54 19.2209 52 16.7209Z" fill="#D9D9D9" fill-opacity="0.5" class="gkuhfovC_1"></path>
<path d="M91 17.7209C89.4 18.9209 89.3333 21.5542 89.5 22.7209C89.3333 33.2209 89 54.7209 89 56.7209C89 59.2209 89.5 60.2209 91 62.2209C92.2 63.8209 95.1667 64.2209 96.5 64.2209H123.5C126 64.2209 127 63.7209 128.5 62.2209C129.7 61.0209 130 59.0542 130 58.2209V48.7209C130 46.2209 126 44.2209 123.5 44.2209C121 44.2209 117 45.2209 114 46.2209C111 47.2209 109.5 46.7209 109 45.2209C108.5 43.7209 110.5 43.2209 113 43.2209C115.5 43.2209 117 41.7209 117 38.7209C117 36.3209 115 36.0542 114 36.2209C112.167 36.5542 108.3 37.0209 107.5 36.2209C106.5 35.2209 106.5 32.7209 107.5 31.2209C108.3 30.0209 109.5 30.7209 110 31.2209C113.833 32.5542 121.9 35.2209 123.5 35.2209C125.5 35.2209 126 35.2209 128 33.2209C129.6 31.6209 130 30.2209 130 29.7209C129.833 27.3875 129.5 22.4209 129.5 21.2209C129.5 19.7209 129.5 18.7209 128 17.2209C126.8 16.0209 124.5 15.3875 123.5 15.2209H96.5C94 15.2209 93 16.2209 91 17.7209Z" fill="#D9D9D9" fill-opacity="0.5" class="gkuhfovC_2"></path>
<path d="M136.5 17.2209C134.5 18.8209 134.333 21.8875 134.5 23.2209C134.333 33.2209 134.1 54.2209 134.5 58.2209C134.9 62.2209 138.333 63.8875 140 64.2209H151C155 64.2209 157 59.2209 157 57.2209C157 55.2209 156.5 53.2209 155 47.2209H161C161 50.2209 163 59.7209 165 62.2209C167 64.7209 168.5 64.2209 172.5 64.2209C175.7 64.2209 177.5 60.8875 178 59.2209V49.7209C178 47.2209 176.5 44.2209 171 42.7209C173 42.2209 175 40.7209 176.5 39.2209C177.7 38.0209 178 34.7209 178 33.2209C178.167 32.2209 178.4 28.8209 178 23.2209C177.6 17.6209 169.833 15.5542 166 15.2209H143.5C141.5 15.2209 139 15.2209 136.5 17.2209Z" fill="#D9D9D9" fill-opacity="0.5" class="gkuhfovC_3"></path>
<path d="M193 15.2209C189.5 15.2209 183.5 17.2209 183.5 24.7209V34.2209C183.5 39.7209 191 43.2209 193.5 43.2209H205.5C209.5 43.2209 209.5 49.2209 208 49.2209C206.5 49.2209 202 49.7209 201.5 48.2209C201.5 44.2209 193 45.2209 191 45.2209C189 45.2209 182.5 46.2209 182.5 53.7209C182.5 61.2209 191 64.2209 194 64.2209H214.5C220.5 64.2209 224.5 57.2209 224.5 55.2209V45.2209C224.5 39.7209 216.5 36.2209 214 36.2209H199.5C196.3 33.8209 198.167 31.5542 199.5 30.7209H205.5C205.5 32.2209 206 34.2209 207.5 34.2209H217.5C221.5 34.2209 224.5 29.7209 224.5 24.7209C224.5 19.7209 217.5 15.2209 212.5 15.2209H193Z" fill="#D9D9D9" fill-opacity="0.5" class="gkuhfovC_4"></path>
<path d="M229 57.2209C229.5 52.7209 231.5 31.2209 232 24.2209C232.5 22.7209 232 15.2209 240 15.2209C246.4 15.2209 248.333 21.2209 248.5 24.2209C249 31.2209 250.2 47.1209 251 54.7209C252 64.2209 245 64.2209 239 64.2209C233 64.2209 228.5 61.7209 229 57.2209Z" fill="#D9D9D9" fill-opacity="0.5" class="gkuhfovC_5"></path>
<path d="M256.5 26.2209C257 17.7209 263 15.2209 268 15.2209C271.333 15.0542 279.9 14.8209 287.5 15.2209C295.1 15.6209 297.333 22.3875 297.5 25.7209C297.667 31.3875 297.9 44.7209 297.5 52.7209C297.1 60.7209 291.667 63.7209 289 64.2209C285.5 64.3875 276.6 64.6209 269 64.2209C259.5 63.7209 256.5 58.7209 256.5 53.7209C256.5 48.7209 256 34.7209 256.5 26.2209Z" fill="#D9D9D9" fill-opacity="0.5" class="gkuhfovC_6"></path>
<path d="M309.5 15.2209C306 15.2209 302.5 16.2209 302.5 22.7209V56.7209C302.5 61.9209 307.167 63.8875 309.5 64.2209H317.5C322 64.2209 325 59.2209 325 57.2209C325 55.2209 320.5 40.7209 322 40.2209C323.5 39.7209 331 56.7209 333.5 60.2209C336 63.7209 337.5 64.2209 342.5 64.2209C346.5 64.2209 347.5 59.2209 347.5 56.7209V20.7209C347.5 17.5209 344.167 15.7209 342.5 15.2209H332.5C329.5 15.2209 325.5 18.2209 325.5 22.2209C325.5 26.2209 329.5 37.7209 328.5 38.2209C327.5 38.7209 324 31.7209 319.5 23.2209C315 14.7209 313 15.2209 309.5 15.2209Z" fill="#D9D9D9" fill-opacity="0.5" class="gkuhfovC_7"></path>
<path d="M377.5 15.2209C372.5 15.2209 367.5 19.2209 367.5 26.2209C367.333 25.5542 367.1 25.1209 367.5 28.7209C367.9 32.3209 372.333 33.8875 374.5 34.2209H382.5C383.5 34.2209 386.5 33.7209 386 31.7209C385.5 29.7209 387.5 30.2209 391.5 30.2209C395.5 30.2209 392 36.2209 389.5 36.2209H376.5C372.5 36.2209 367 41.7209 367 45.2209V54.2209C367 60.6209 374.667 63.5542 378.5 64.2209H397.5C403.5 64.2209 408.5 58.7209 408.5 52.7209C408.5 47.9209 404.167 45.7209 402 45.2209H394C392.5 45.2209 389 45.2209 389.5 47.2209C390 49.2209 388.5 49.2209 386 49.2209C383.5 49.2209 382.5 49.2209 382.5 46.7209C382.5 44.7209 384.833 43.5542 386 43.2209H398.5C404.5 43.2209 407.667 37.2209 408.5 34.2209C408.667 32.8875 408.9 29.2209 408.5 25.2209C408 20.2209 403.5 15.2209 399 15.2209H377.5Z" fill="#D9D9D9" fill-opacity="0.5" class="gkuhfovC_8"></path>
<path d="M52 16.7209C50.4 14.7209 46 14.8875 44 15.2209C42 15.2209 37.7 15.5209 36.5 16.7209C35 18.2209 34 19.7209 34 22.2209C34 24.2209 35 26.3875 35.5 27.2209C38.6667 36.8875 45.2 56.6209 46 58.2209C47 60.2209 47.5 61.7209 49.5 63.2209C51.5 64.7209 50.5 63.7209 54 63.7209H66C69.5 63.7209 69.5 63.7209 71.5 62.2209C73.1 61.0209 73.5 59.0542 73.5 58.2209C77.3333 47.2209 85 24.7209 85 22.7209C85 20.2209 85 19.2209 83 17.2209C81 15.2209 79.5 15.2209 75.5 15.2209C71.5 15.2209 70 15.2209 67 17.2209C64 19.2209 63.5 30.2209 63 34.7209C62.5 39.2209 62 49.2209 59.5 49.2209C57 49.2209 57 41.7209 56 34.7209C55 27.7209 54 19.2209 52 16.7209Z" stroke="url(#paint0_linear_1_13)" stroke-width="4" stroke-linejoin="round" class="gkuhfovC_9"></path>
<path d="M91 17.7209C89.4 18.9209 89.3333 21.5542 89.5 22.7209C89.3333 33.2209 89 54.7209 89 56.7209C89 59.2209 89.5 60.2209 91 62.2209C92.2 63.8209 95.1667 64.2209 96.5 64.2209H123.5C126 64.2209 127 63.7209 128.5 62.2209C129.7 61.0209 130 59.0542 130 58.2209V48.7209C130 46.2209 126 44.2209 123.5 44.2209C121 44.2209 117 45.2209 114 46.2209C111 47.2209 109.5 46.7209 109 45.2209C108.5 43.7209 110.5 43.2209 113 43.2209C115.5 43.2209 117 41.7209 117 38.7209C117 36.3209 115 36.0542 114 36.2209C112.167 36.5542 108.3 37.0209 107.5 36.2209C106.5 35.2209 106.5 32.7209 107.5 31.2209C108.3 30.0209 109.5 30.7209 110 31.2209C113.833 32.5542 121.9 35.2209 123.5 35.2209C125.5 35.2209 126 35.2209 128 33.2209C129.6 31.6209 130 30.2209 130 29.7209C129.833 27.3875 129.5 22.4209 129.5 21.2209C129.5 19.7209 129.5 18.7209 128 17.2209C126.8 16.0209 124.5 15.3875 123.5 15.2209H96.5C94 15.2209 93 16.2209 91 17.7209Z" stroke="url(#paint1_linear_1_13)" stroke-width="4" stroke-linejoin="round" class="gkuhfovC_10"></path>
<path d="M136.5 17.2209C134.5 18.8209 134.333 21.8875 134.5 23.2209C134.333 33.2209 134.1 54.2209 134.5 58.2209C134.9 62.2209 138.333 63.8875 140 64.2209H151C155 64.2209 157 59.2209 157 57.2209C157 55.2209 156.5 53.2209 155 47.2209H161C161 50.2209 163 59.7209 165 62.2209C167 64.7209 168.5 64.2209 172.5 64.2209C175.7 64.2209 177.5 60.8875 178 59.2209V49.7209C178 47.2209 176.5 44.2209 171 42.7209C173 42.2209 175 40.7209 176.5 39.2209C177.7 38.0209 178 34.7209 178 33.2209C178.167 32.2209 178.4 28.8209 178 23.2209C177.6 17.6209 169.833 15.5542 166 15.2209H143.5C141.5 15.2209 139 15.2209 136.5 17.2209Z" stroke="url(#paint2_linear_1_13)" stroke-width="4" stroke-linejoin="round" class="gkuhfovC_11"></path>
<path d="M193 15.2209C189.5 15.2209 183.5 17.2209 183.5 24.7209V34.2209C183.5 39.7209 191 43.2209 193.5 43.2209H205.5C209.5 43.2209 209.5 49.2209 208 49.2209C206.5 49.2209 202 49.7209 201.5 48.2209C201.5 44.2209 193 45.2209 191 45.2209C189 45.2209 182.5 46.2209 182.5 53.7209C182.5 61.2209 191 64.2209 194 64.2209H214.5C220.5 64.2209 224.5 57.2209 224.5 55.2209V45.2209C224.5 39.7209 216.5 36.2209 214 36.2209H199.5C196.3 33.8209 198.167 31.5542 199.5 30.7209H205.5C205.5 32.2209 206 34.2209 207.5 34.2209H217.5C221.5 34.2209 224.5 29.7209 224.5 24.7209C224.5 19.7209 217.5 15.2209 212.5 15.2209H193Z" stroke="url(#paint3_linear_1_13)" stroke-width="4" stroke-linejoin="round" class="gkuhfovC_12"></path>
<path d="M229 57.2209C229.5 52.7209 231.5 31.2209 232 24.2209C232.5 22.7209 232 15.2209 240 15.2209C246.4 15.2209 248.333 21.2209 248.5 24.2209C249 31.2209 250.2 47.1209 251 54.7209C252 64.2209 245 64.2209 239 64.2209C233 64.2209 228.5 61.7209 229 57.2209Z" stroke="url(#paint4_linear_1_13)" stroke-width="4" stroke-linejoin="round" class="gkuhfovC_13"></path>
<path d="M256.5 26.2209C257 17.7209 263 15.2209 268 15.2209C271.333 15.0542 279.9 14.8209 287.5 15.2209C295.1 15.6209 297.333 22.3875 297.5 25.7209C297.667 31.3875 297.9 44.7209 297.5 52.7209C297.1 60.7209 291.667 63.7209 289 64.2209C285.5 64.3875 276.6 64.6209 269 64.2209C259.5 63.7209 256.5 58.7209 256.5 53.7209C256.5 48.7209 256 34.7209 256.5 26.2209Z" stroke="url(#paint5_linear_1_13)" stroke-width="4" stroke-linejoin="round" class="gkuhfovC_14"></path>
<path d="M309.5 15.2209C306 15.2209 302.5 16.2209 302.5 22.7209V56.7209C302.5 61.9209 307.167 63.8875 309.5 64.2209H317.5C322 64.2209 325 59.2209 325 57.2209C325 55.2209 320.5 40.7209 322 40.2209C323.5 39.7209 331 56.7209 333.5 60.2209C336 63.7209 337.5 64.2209 342.5 64.2209C346.5 64.2209 347.5 59.2209 347.5 56.7209V20.7209C347.5 17.5209 344.167 15.7209 342.5 15.2209H332.5C329.5 15.2209 325.5 18.2209 325.5 22.2209C325.5 26.2209 329.5 37.7209 328.5 38.2209C327.5 38.7209 324 31.7209 319.5 23.2209C315 14.7209 313 15.2209 309.5 15.2209Z" stroke="url(#paint6_linear_1_13)" stroke-width="4" stroke-linejoin="round" class="gkuhfovC_15"></path>
<path d="M377.5 15.2209C372.5 15.2209 367.5 19.2209 367.5 26.2209C367.333 25.5542 367.1 25.1209 367.5 28.7209C367.9 32.3209 372.333 33.8875 374.5 34.2209H382.5C383.5 34.2209 386.5 33.7209 386 31.7209C385.5 29.7209 387.5 30.2209 391.5 30.2209C395.5 30.2209 392 36.2209 389.5 36.2209H376.5C372.5 36.2209 367 41.7209 367 45.2209V54.2209C367 60.6209 374.667 63.5542 378.5 64.2209H397.5C403.5 64.2209 408.5 58.7209 408.5 52.7209C408.5 47.9209 404.167 45.7209 402 45.2209H394C392.5 45.2209 389 45.2209 389.5 47.2209C390 49.2209 388.5 49.2209 386 49.2209C383.5 49.2209 382.5 49.2209 382.5 46.7209C382.5 44.7209 384.833 43.5542 386 43.2209H398.5C404.5 43.2209 407.667 37.2209 408.5 34.2209C408.667 32.8875 408.9 29.2209 408.5 25.2209C408 20.2209 403.5 15.2209 399 15.2209H377.5Z" stroke="url(#paint7_linear_1_13)" stroke-width="4" stroke-linejoin="round" class="gkuhfovC_16"></path>
</g>
<path id="Vector 3" d="M271.969 31.119C271.345 32.5056 271.026 34.2575 271.787 35.6786C272.417 36.8539 272.745 38.072 273.134 39.3525C273.475 40.4762 273.5 41.6578 273.704 42.8085C273.904 43.9382 274.14 45.1125 274.466 46.2137C274.773 47.2492 275.084 48.357 275.984 49.0199C276.946 49.7291 278.311 49.9527 279.498 49.9383C280.006 49.9322 280.549 49.7781 280.997 49.5317C281.641 49.1773 281.856 48.7907 282.068 48.0941C282.446 46.8513 282.358 45.5594 282.358 44.2751C282.358 43.1692 281.822 42.1151 281.523 41.066C281.106 39.5978 280.917 38.0588 280.431 36.6153C279.966 35.2372 279.692 33.8071 279.185 32.4477C279.014 31.9875 278.808 31.5447 278.499 31.159C278.139 30.7088 277.876 30.6131 277.32 30.5309C276.877 30.4656 276.438 30.3818 275.991 30.3494C275.478 30.3122 275.071 30.1398 274.575 30.0517C273.605 29.8796 272.776 30.1584 272.165 30.923" stroke="url(#paint8_linear_1_13)" stroke-width="4" stroke-linecap="round" class="gkuhfovC_17"></path>
<path id="Vector 2" d="M151.46 30.7598C150.985 32.4841 151.089 34.4827 151.696 36.1498C152.155 37.412 152.497 38.6357 153.537 39.5702C155.414 41.2577 159.421 41.1606 159.268 37.911C159.186 36.1595 159.052 34.5347 158.439 32.8759C158.208 32.251 157.858 31.6817 157.485 31.1324C157.068 30.5186 156.403 30.3086 155.737 30.0411C154.583 29.5778 152.49 29.3567 151.78 30.6001" stroke="url(#paint9_linear_1_13)" stroke-width="4" stroke-linecap="round" class="gkuhfovC_18"></path>
</g>
<defs>
<linearGradient id="paint0_linear_1_13" x1="34" y1="39.7209" x2="408.721" y2="39.7209" gradientUnits="userSpaceOnUse">
<stop stop-color="#0071BC"></stop>
<stop offset="1" stop-color="#C1272D"></stop>
</linearGradient>
<linearGradient id="paint1_linear_1_13" x1="34" y1="39.7209" x2="408.721" y2="39.7209" gradientUnits="userSpaceOnUse">
<stop stop-color="#0071BC"></stop>
<stop offset="1" stop-color="#C1272D"></stop>
</linearGradient>
<linearGradient id="paint2_linear_1_13" x1="34" y1="39.7209" x2="408.721" y2="39.7209" gradientUnits="userSpaceOnUse">
<stop stop-color="#0071BC"></stop>
<stop offset="1" stop-color="#C1272D"></stop>
</linearGradient>
<linearGradient id="paint3_linear_1_13" x1="34" y1="39.7209" x2="408.721" y2="39.7209" gradientUnits="userSpaceOnUse">
<stop stop-color="#0071BC"></stop>
<stop offset="1" stop-color="#C1272D"></stop>
</linearGradient>
<linearGradient id="paint4_linear_1_13" x1="34" y1="39.7209" x2="408.721" y2="39.7209" gradientUnits="userSpaceOnUse">
<stop stop-color="#0071BC"></stop>
<stop offset="1" stop-color="#C1272D"></stop>
</linearGradient>
<linearGradient id="paint5_linear_1_13" x1="34" y1="39.7209" x2="408.721" y2="39.7209" gradientUnits="userSpaceOnUse">
<stop stop-color="#0071BC"></stop>
<stop offset="1" stop-color="#C1272D"></stop>
</linearGradient>
<linearGradient id="paint6_linear_1_13" x1="34" y1="39.7209" x2="408.721" y2="39.7209" gradientUnits="userSpaceOnUse">
<stop stop-color="#0071BC"></stop>
<stop offset="1" stop-color="#C1272D"></stop>
</linearGradient>
<linearGradient id="paint7_linear_1_13" x1="34" y1="39.7209" x2="408.721" y2="39.7209" gradientUnits="userSpaceOnUse">
<stop stop-color="#0071BC"></stop>
<stop offset="1" stop-color="#C1272D"></stop>
</linearGradient>
<linearGradient id="paint8_linear_1_13" x1="271.342" y1="39.9708" x2="282.367" y2="39.9708" gradientUnits="userSpaceOnUse">
<stop stop-color="#7A4262"></stop>
<stop offset="1" stop-color="#80405D"></stop>
</linearGradient>
<linearGradient id="paint9_linear_1_13" x1="151.162" y1="35.1629" x2="159.272" y2="35.1629" gradientUnits="userSpaceOnUse">
<stop stop-color="#3C5A90"></stop>
<stop offset="1" stop-color="#40588C"></stop>
</linearGradient>
</defs>
<style data-made-with="vivus-instant">.gkuhfovC_0{stroke-dasharray:336 338;stroke-dashoffset:337;animation:gkuhfovC_draw_0 5620ms ease-in-out 0ms infinite,gkuhfovC_fade 5620ms linear 0ms infinite;}.gkuhfovC_1{stroke-dasharray:223 225;stroke-dashoffset:224;animation:gkuhfovC_draw_1 5620ms ease-in-out 0ms infinite,gkuhfovC_fade 5620ms linear 0ms infinite;}.gkuhfovC_2{stroke-dasharray:228 230;stroke-dashoffset:229;animation:gkuhfovC_draw_2 5620ms ease-in-out 0ms infinite,gkuhfovC_fade 5620ms linear 0ms infinite;}.gkuhfovC_3{stroke-dasharray:208 210;stroke-dashoffset:209;animation:gkuhfovC_draw_3 5620ms ease-in-out 0ms infinite,gkuhfovC_fade 5620ms linear 0ms infinite;}.gkuhfovC_4{stroke-dasharray:260 262;stroke-dashoffset:261;animation:gkuhfovC_draw_4 5620ms ease-in-out 0ms infinite,gkuhfovC_fade 5620ms linear 0ms infinite;}.gkuhfovC_5{stroke-dasharray:124 126;stroke-dashoffset:125;animation:gkuhfovC_draw_5 5620ms ease-in-out 0ms infinite,gkuhfovC_fade 5620ms linear 0ms infinite;}.gkuhfovC_6{stroke-dasharray:162 164;stroke-dashoffset:163;animation:gkuhfovC_draw_6 5620ms ease-in-out 0ms infinite,gkuhfovC_fade 5620ms linear 0ms infinite;}.gkuhfovC_7{stroke-dasharray:251 253;stroke-dashoffset:252;animation:gkuhfovC_draw_7 5620ms ease-in-out 0ms infinite,gkuhfovC_fade 5620ms linear 0ms infinite;}.gkuhfovC_8{stroke-dasharray:260 262;stroke-dashoffset:261;animation:gkuhfovC_draw_8 5620ms ease-in-out 0ms infinite,gkuhfovC_fade 5620ms linear 0ms infinite;}.gkuhfovC_9{stroke-dasharray:223 225;stroke-dashoffset:224;animation:gkuhfovC_draw_9 5620ms ease-in-out 0ms infinite,gkuhfovC_fade 5620ms linear 0ms infinite;}.gkuhfovC_10{stroke-dasharray:228 230;stroke-dashoffset:229;animation:gkuhfovC_draw_10 5620ms ease-in-out 0ms infinite,gkuhfovC_fade 5620ms linear 0ms infinite;}.gkuhfovC_11{stroke-dasharray:208 210;stroke-dashoffset:209;animation:gkuhfovC_draw_11 5620ms ease-in-out 0ms infinite,gkuhfovC_fade 5620ms linear 0ms infinite;}.gkuhfovC_12{stroke-dasharray:260 262;stroke-dashoffset:261;animation:gkuhfovC_draw_12 5620ms ease-in-out 0ms infinite,gkuhfovC_fade 5620ms linear 0ms infinite;}.gkuhfovC_13{stroke-dasharray:124 126;stroke-dashoffset:125;animation:gkuhfovC_draw_13 5620ms ease-in-out 0ms infinite,gkuhfovC_fade 5620ms linear 0ms infinite;}.gkuhfovC_14{stroke-dasharray:162 164;stroke-dashoffset:163;animation:gkuhfovC_draw_14 5620ms ease-in-out 0ms infinite,gkuhfovC_fade 5620ms linear 0ms infinite;}.gkuhfovC_15{stroke-dasharray:251 253;stroke-dashoffset:252;animation:gkuhfovC_draw_15 5620ms ease-in-out 0ms infinite,gkuhfovC_fade 5620ms linear 0ms infinite;}.gkuhfovC_16{stroke-dasharray:260 262;stroke-dashoffset:261;animation:gkuhfovC_draw_16 5620ms ease-in-out 0ms infinite,gkuhfovC_fade 5620ms linear 0ms infinite;}.gkuhfovC_17{stroke-dasharray:51 53;stroke-dashoffset:52;animation:gkuhfovC_draw_17 5620ms ease-in-out 0ms infinite,gkuhfovC_fade 5620ms linear 0ms infinite;}.gkuhfovC_18{stroke-dasharray:31 33;stroke-dashoffset:32;animation:gkuhfovC_draw_18 5620ms ease-in-out 0ms infinite,gkuhfovC_fade 5620ms linear 0ms infinite;}@keyframes gkuhfovC_draw{100%{stroke-dashoffset:0;}}@keyframes gkuhfovC_fade{0%{stroke-opacity:1;}94.66192170818505%{stroke-opacity:1;}100%{stroke-opacity:0;}}@keyframes gkuhfovC_draw_0{2.135231316725979%{stroke-dashoffset: 337}21.11506524317912%{ stroke-dashoffset: 0;}100%{ stroke-dashoffset: 0;}}@keyframes gkuhfovC_draw_1{2.6624489257941213%{stroke-dashoffset: 224}21.64228285224726%{ stroke-dashoffset: 0;}100%{ stroke-dashoffset: 0;}}@keyframes gkuhfovC_draw_2{3.189666534862264%{stroke-dashoffset: 229}22.169500461315405%{ stroke-dashoffset: 0;}100%{ stroke-dashoffset: 0;}}@keyframes gkuhfovC_draw_3{3.716884143930408%{stroke-dashoffset: 209}22.696718070383547%{ stroke-dashoffset: 0;}100%{ stroke-dashoffset: 0;}}@keyframes gkuhfovC_draw_4{4.24410175299855%{stroke-dashoffset: 261}23.223935679451692%{ stroke-dashoffset: 0;}100%{ stroke-dashoffset: 0;}}@keyframes gkuhfovC_draw_5{4.771319362066693%{stroke-dashoffset: 125}23.751153288519834%{ stroke-dashoffset: 0;}100%{ stroke-dashoffset: 0;}}@keyframes gkuhfovC_draw_6{5.298536971134837%{stroke-dashoffset: 163}24.27837089758798%{ stroke-dashoffset: 0;}100%{ stroke-dashoffset: 0;}}@keyframes gkuhfovC_draw_7{5.82575458020298%{stroke-dashoffset: 252}24.80558850665612%{ stroke-dashoffset: 0;}100%{ stroke-dashoffset: 0;}}@keyframes gkuhfovC_draw_8{6.352972189271123%{stroke-dashoffset: 261}25.33280611572426%{ stroke-dashoffset: 0;}100%{ stroke-dashoffset: 0;}}@keyframes gkuhfovC_draw_9{6.880189798339265%{stroke-dashoffset: 224}25.86002372479241%{ stroke-dashoffset: 0;}100%{ stroke-dashoffset: 0;}}@keyframes gkuhfovC_draw_10{7.4074074074074066%{stroke-dashoffset: 229}26.38724133386055%{ stroke-dashoffset: 0;}100%{ stroke-dashoffset: 0;}}@keyframes gkuhfovC_draw_11{7.934625016475551%{stroke-dashoffset: 209}26.914458942928693%{ stroke-dashoffset: 0;}100%{ stroke-dashoffset: 0;}}@keyframes gkuhfovC_draw_12{8.461842625543694%{stroke-dashoffset: 261}27.441676551996835%{ stroke-dashoffset: 0;}100%{ stroke-dashoffset: 0;}}@keyframes gkuhfovC_draw_13{8.989060234611838%{stroke-dashoffset: 125}27.968894161064977%{ stroke-dashoffset: 0;}100%{ stroke-dashoffset: 0;}}@keyframes gkuhfovC_draw_14{9.516277843679982%{stroke-dashoffset: 163}28.49611177013312%{ stroke-dashoffset: 0;}100%{ stroke-dashoffset: 0;}}@keyframes gkuhfovC_draw_15{10.043495452748125%{stroke-dashoffset: 252}29.02332937920126%{ stroke-dashoffset: 0;}100%{ stroke-dashoffset: 0;}}@keyframes gkuhfovC_draw_16{10.570713061816265%{stroke-dashoffset: 261}29.550546988269407%{ stroke-dashoffset: 0;}100%{ stroke-dashoffset: 0;}}@keyframes gkuhfovC_draw_17{11.097930670884407%{stroke-dashoffset: 52}30.07776459733755%{ stroke-dashoffset: 0;}100%{ stroke-dashoffset: 0;}}@keyframes gkuhfovC_draw_18{11.625148279952551%{stroke-dashoffset: 32}30.604982206405694%{ stroke-dashoffset: 0;}100%{ stroke-dashoffset: 0;}}</style></svg>
